G04 #@! TF.FileFunction,Legend,Top*
%FSLAX46Y46*%
G04 Gerber Fmt 4.6, Leading zero omitted, Abs format (unit mm)*
G04 Created by KiCad (PCBNEW 4.0.7) date 07/03/23 18:34:59*
%MOMM*%
%LPD*%
G01*
G04 APERTURE LIST*
%ADD10C,0.100000*%
%ADD11C,0.300000*%
%ADD12C,0.120000*%
%ADD13C,0.150000*%
%ADD14C,0.203200*%
%ADD15C,0.254000*%
G04 APERTURE END LIST*
D10*
D11*
X149439428Y-102810571D02*
X149725142Y-102810571D01*
X149868000Y-102882000D01*
X150010857Y-103024857D01*
X150082285Y-103310571D01*
X150082285Y-103810571D01*
X150010857Y-104096286D01*
X149868000Y-104239143D01*
X149725142Y-104310571D01*
X149439428Y-104310571D01*
X149296571Y-104239143D01*
X149153714Y-104096286D01*
X149082285Y-103810571D01*
X149082285Y-103310571D01*
X149153714Y-103024857D01*
X149296571Y-102882000D01*
X149439428Y-102810571D01*
X150725143Y-104310571D02*
X150725143Y-102810571D01*
X151582286Y-104310571D01*
X151582286Y-102810571D01*
X143700572Y-101707143D02*
X144843429Y-101707143D01*
X144272000Y-102278571D02*
X144272000Y-101135714D01*
D10*
X142849600Y-100380800D02*
X140004800Y-100380800D01*
X135026400Y-100380800D02*
X137871200Y-100380800D01*
X142849600Y-103124000D02*
X142849600Y-100380800D01*
X135026400Y-103124000D02*
X135026400Y-100380800D01*
X150164800Y-113690400D02*
G75*
G03X150164800Y-113690400I-11226800J0D01*
G01*
D12*
X166787723Y-124463722D02*
G75*
G03X166788000Y-119852420I-1179723J2305722D01*
G01*
X164428277Y-124463722D02*
G75*
G02X164428000Y-119852420I1179723J2305722D01*
G01*
X164428277Y-124463722D02*
G75*
G03X166788000Y-124463580I1179723J2305722D01*
G01*
X168158000Y-122158000D02*
X163058000Y-122158000D01*
X168158000Y-122198000D02*
X166588000Y-122198000D01*
X164628000Y-122198000D02*
X163058000Y-122198000D01*
X168157000Y-122238000D02*
X166588000Y-122238000D01*
X164628000Y-122238000D02*
X163059000Y-122238000D01*
X168156000Y-122278000D02*
X166588000Y-122278000D01*
X164628000Y-122278000D02*
X163060000Y-122278000D01*
X168154000Y-122318000D02*
X166588000Y-122318000D01*
X164628000Y-122318000D02*
X163062000Y-122318000D01*
X168151000Y-122358000D02*
X166588000Y-122358000D01*
X164628000Y-122358000D02*
X163065000Y-122358000D01*
X168147000Y-122398000D02*
X166588000Y-122398000D01*
X164628000Y-122398000D02*
X163069000Y-122398000D01*
X168143000Y-122438000D02*
X166588000Y-122438000D01*
X164628000Y-122438000D02*
X163073000Y-122438000D01*
X168139000Y-122478000D02*
X166588000Y-122478000D01*
X164628000Y-122478000D02*
X163077000Y-122478000D01*
X168133000Y-122518000D02*
X166588000Y-122518000D01*
X164628000Y-122518000D02*
X163083000Y-122518000D01*
X168127000Y-122558000D02*
X166588000Y-122558000D01*
X164628000Y-122558000D02*
X163089000Y-122558000D01*
X168121000Y-122598000D02*
X166588000Y-122598000D01*
X164628000Y-122598000D02*
X163095000Y-122598000D01*
X168114000Y-122638000D02*
X166588000Y-122638000D01*
X164628000Y-122638000D02*
X163102000Y-122638000D01*
X168106000Y-122678000D02*
X166588000Y-122678000D01*
X164628000Y-122678000D02*
X163110000Y-122678000D01*
X168097000Y-122718000D02*
X166588000Y-122718000D01*
X164628000Y-122718000D02*
X163119000Y-122718000D01*
X168088000Y-122758000D02*
X166588000Y-122758000D01*
X164628000Y-122758000D02*
X163128000Y-122758000D01*
X168078000Y-122798000D02*
X166588000Y-122798000D01*
X164628000Y-122798000D02*
X163138000Y-122798000D01*
X168068000Y-122838000D02*
X166588000Y-122838000D01*
X164628000Y-122838000D02*
X163148000Y-122838000D01*
X168056000Y-122879000D02*
X166588000Y-122879000D01*
X164628000Y-122879000D02*
X163160000Y-122879000D01*
X168044000Y-122919000D02*
X166588000Y-122919000D01*
X164628000Y-122919000D02*
X163172000Y-122919000D01*
X168032000Y-122959000D02*
X166588000Y-122959000D01*
X164628000Y-122959000D02*
X163184000Y-122959000D01*
X168018000Y-122999000D02*
X166588000Y-122999000D01*
X164628000Y-122999000D02*
X163198000Y-122999000D01*
X168004000Y-123039000D02*
X166588000Y-123039000D01*
X164628000Y-123039000D02*
X163212000Y-123039000D01*
X167990000Y-123079000D02*
X166588000Y-123079000D01*
X164628000Y-123079000D02*
X163226000Y-123079000D01*
X167974000Y-123119000D02*
X166588000Y-123119000D01*
X164628000Y-123119000D02*
X163242000Y-123119000D01*
X167958000Y-123159000D02*
X166588000Y-123159000D01*
X164628000Y-123159000D02*
X163258000Y-123159000D01*
X167941000Y-123199000D02*
X166588000Y-123199000D01*
X164628000Y-123199000D02*
X163275000Y-123199000D01*
X167923000Y-123239000D02*
X166588000Y-123239000D01*
X164628000Y-123239000D02*
X163293000Y-123239000D01*
X167904000Y-123279000D02*
X166588000Y-123279000D01*
X164628000Y-123279000D02*
X163312000Y-123279000D01*
X167884000Y-123319000D02*
X166588000Y-123319000D01*
X164628000Y-123319000D02*
X163332000Y-123319000D01*
X167864000Y-123359000D02*
X166588000Y-123359000D01*
X164628000Y-123359000D02*
X163352000Y-123359000D01*
X167842000Y-123399000D02*
X166588000Y-123399000D01*
X164628000Y-123399000D02*
X163374000Y-123399000D01*
X167820000Y-123439000D02*
X166588000Y-123439000D01*
X164628000Y-123439000D02*
X163396000Y-123439000D01*
X167797000Y-123479000D02*
X166588000Y-123479000D01*
X164628000Y-123479000D02*
X163419000Y-123479000D01*
X167773000Y-123519000D02*
X166588000Y-123519000D01*
X164628000Y-123519000D02*
X163443000Y-123519000D01*
X167748000Y-123559000D02*
X166588000Y-123559000D01*
X164628000Y-123559000D02*
X163468000Y-123559000D01*
X167721000Y-123599000D02*
X166588000Y-123599000D01*
X164628000Y-123599000D02*
X163495000Y-123599000D01*
X167694000Y-123639000D02*
X166588000Y-123639000D01*
X164628000Y-123639000D02*
X163522000Y-123639000D01*
X167666000Y-123679000D02*
X166588000Y-123679000D01*
X164628000Y-123679000D02*
X163550000Y-123679000D01*
X167636000Y-123719000D02*
X166588000Y-123719000D01*
X164628000Y-123719000D02*
X163580000Y-123719000D01*
X167605000Y-123759000D02*
X166588000Y-123759000D01*
X164628000Y-123759000D02*
X163611000Y-123759000D01*
X167573000Y-123799000D02*
X166588000Y-123799000D01*
X164628000Y-123799000D02*
X163643000Y-123799000D01*
X167540000Y-123839000D02*
X166588000Y-123839000D01*
X164628000Y-123839000D02*
X163676000Y-123839000D01*
X167505000Y-123879000D02*
X166588000Y-123879000D01*
X164628000Y-123879000D02*
X163711000Y-123879000D01*
X167469000Y-123919000D02*
X166588000Y-123919000D01*
X164628000Y-123919000D02*
X163747000Y-123919000D01*
X167431000Y-123959000D02*
X166588000Y-123959000D01*
X164628000Y-123959000D02*
X163785000Y-123959000D01*
X167391000Y-123999000D02*
X166588000Y-123999000D01*
X164628000Y-123999000D02*
X163825000Y-123999000D01*
X167350000Y-124039000D02*
X166588000Y-124039000D01*
X164628000Y-124039000D02*
X163866000Y-124039000D01*
X167307000Y-124079000D02*
X166588000Y-124079000D01*
X164628000Y-124079000D02*
X163909000Y-124079000D01*
X167262000Y-124119000D02*
X166588000Y-124119000D01*
X164628000Y-124119000D02*
X163954000Y-124119000D01*
X167214000Y-124159000D02*
X164002000Y-124159000D01*
X167164000Y-124199000D02*
X164052000Y-124199000D01*
X167112000Y-124239000D02*
X164104000Y-124239000D01*
X167056000Y-124279000D02*
X164160000Y-124279000D01*
X166998000Y-124319000D02*
X164218000Y-124319000D01*
X166935000Y-124359000D02*
X164281000Y-124359000D01*
X166869000Y-124399000D02*
X164347000Y-124399000D01*
X166797000Y-124439000D02*
X164419000Y-124439000D01*
X166720000Y-124479000D02*
X164496000Y-124479000D01*
X166636000Y-124519000D02*
X164580000Y-124519000D01*
X166542000Y-124559000D02*
X164674000Y-124559000D01*
X166437000Y-124599000D02*
X164779000Y-124599000D01*
X166315000Y-124639000D02*
X164901000Y-124639000D01*
X166167000Y-124679000D02*
X165049000Y-124679000D01*
X165962000Y-124719000D02*
X165254000Y-124719000D01*
X165608000Y-118958000D02*
X165608000Y-120158000D01*
X166258000Y-119558000D02*
X164958000Y-119558000D01*
X175677136Y-124409820D02*
G75*
G03X175678000Y-118374518I-1179136J3017820D01*
G01*
X173318864Y-124409820D02*
G75*
G02X173318000Y-118374518I1179136J3017820D01*
G01*
X173318864Y-124409820D02*
G75*
G03X175678000Y-124409482I1179136J3017820D01*
G01*
X177698000Y-121392000D02*
X171298000Y-121392000D01*
X177698000Y-121432000D02*
X171298000Y-121432000D01*
X177698000Y-121472000D02*
X171298000Y-121472000D01*
X177696000Y-121512000D02*
X171300000Y-121512000D01*
X177695000Y-121552000D02*
X171301000Y-121552000D01*
X177692000Y-121592000D02*
X171304000Y-121592000D01*
X177690000Y-121632000D02*
X171306000Y-121632000D01*
X177686000Y-121672000D02*
X175478000Y-121672000D01*
X173518000Y-121672000D02*
X171310000Y-121672000D01*
X177683000Y-121712000D02*
X175478000Y-121712000D01*
X173518000Y-121712000D02*
X171313000Y-121712000D01*
X177678000Y-121752000D02*
X175478000Y-121752000D01*
X173518000Y-121752000D02*
X171318000Y-121752000D01*
X177674000Y-121792000D02*
X175478000Y-121792000D01*
X173518000Y-121792000D02*
X171322000Y-121792000D01*
X177668000Y-121832000D02*
X175478000Y-121832000D01*
X173518000Y-121832000D02*
X171328000Y-121832000D01*
X177663000Y-121872000D02*
X175478000Y-121872000D01*
X173518000Y-121872000D02*
X171333000Y-121872000D01*
X177656000Y-121912000D02*
X175478000Y-121912000D01*
X173518000Y-121912000D02*
X171340000Y-121912000D01*
X177650000Y-121952000D02*
X175478000Y-121952000D01*
X173518000Y-121952000D02*
X171346000Y-121952000D01*
X177642000Y-121992000D02*
X175478000Y-121992000D01*
X173518000Y-121992000D02*
X171354000Y-121992000D01*
X177635000Y-122032000D02*
X175478000Y-122032000D01*
X173518000Y-122032000D02*
X171361000Y-122032000D01*
X177626000Y-122072000D02*
X175478000Y-122072000D01*
X173518000Y-122072000D02*
X171370000Y-122072000D01*
X177617000Y-122113000D02*
X175478000Y-122113000D01*
X173518000Y-122113000D02*
X171379000Y-122113000D01*
X177608000Y-122153000D02*
X175478000Y-122153000D01*
X173518000Y-122153000D02*
X171388000Y-122153000D01*
X177598000Y-122193000D02*
X175478000Y-122193000D01*
X173518000Y-122193000D02*
X171398000Y-122193000D01*
X177588000Y-122233000D02*
X175478000Y-122233000D01*
X173518000Y-122233000D02*
X171408000Y-122233000D01*
X177577000Y-122273000D02*
X175478000Y-122273000D01*
X173518000Y-122273000D02*
X171419000Y-122273000D01*
X177565000Y-122313000D02*
X175478000Y-122313000D01*
X173518000Y-122313000D02*
X171431000Y-122313000D01*
X177553000Y-122353000D02*
X175478000Y-122353000D01*
X173518000Y-122353000D02*
X171443000Y-122353000D01*
X177540000Y-122393000D02*
X175478000Y-122393000D01*
X173518000Y-122393000D02*
X171456000Y-122393000D01*
X177527000Y-122433000D02*
X175478000Y-122433000D01*
X173518000Y-122433000D02*
X171469000Y-122433000D01*
X177513000Y-122473000D02*
X175478000Y-122473000D01*
X173518000Y-122473000D02*
X171483000Y-122473000D01*
X177499000Y-122513000D02*
X175478000Y-122513000D01*
X173518000Y-122513000D02*
X171497000Y-122513000D01*
X177484000Y-122553000D02*
X175478000Y-122553000D01*
X173518000Y-122553000D02*
X171512000Y-122553000D01*
X177468000Y-122593000D02*
X175478000Y-122593000D01*
X173518000Y-122593000D02*
X171528000Y-122593000D01*
X177452000Y-122633000D02*
X175478000Y-122633000D01*
X173518000Y-122633000D02*
X171544000Y-122633000D01*
X177435000Y-122673000D02*
X175478000Y-122673000D01*
X173518000Y-122673000D02*
X171561000Y-122673000D01*
X177417000Y-122713000D02*
X175478000Y-122713000D01*
X173518000Y-122713000D02*
X171579000Y-122713000D01*
X177399000Y-122753000D02*
X175478000Y-122753000D01*
X173518000Y-122753000D02*
X171597000Y-122753000D01*
X177380000Y-122793000D02*
X175478000Y-122793000D01*
X173518000Y-122793000D02*
X171616000Y-122793000D01*
X177361000Y-122833000D02*
X175478000Y-122833000D01*
X173518000Y-122833000D02*
X171635000Y-122833000D01*
X177341000Y-122873000D02*
X175478000Y-122873000D01*
X173518000Y-122873000D02*
X171655000Y-122873000D01*
X177320000Y-122913000D02*
X175478000Y-122913000D01*
X173518000Y-122913000D02*
X171676000Y-122913000D01*
X177298000Y-122953000D02*
X175478000Y-122953000D01*
X173518000Y-122953000D02*
X171698000Y-122953000D01*
X177276000Y-122993000D02*
X175478000Y-122993000D01*
X173518000Y-122993000D02*
X171720000Y-122993000D01*
X177253000Y-123033000D02*
X175478000Y-123033000D01*
X173518000Y-123033000D02*
X171743000Y-123033000D01*
X177229000Y-123073000D02*
X175478000Y-123073000D01*
X173518000Y-123073000D02*
X171767000Y-123073000D01*
X177204000Y-123113000D02*
X175478000Y-123113000D01*
X173518000Y-123113000D02*
X171792000Y-123113000D01*
X177179000Y-123153000D02*
X175478000Y-123153000D01*
X173518000Y-123153000D02*
X171817000Y-123153000D01*
X177152000Y-123193000D02*
X175478000Y-123193000D01*
X173518000Y-123193000D02*
X171844000Y-123193000D01*
X177125000Y-123233000D02*
X175478000Y-123233000D01*
X173518000Y-123233000D02*
X171871000Y-123233000D01*
X177097000Y-123273000D02*
X175478000Y-123273000D01*
X173518000Y-123273000D02*
X171899000Y-123273000D01*
X177068000Y-123313000D02*
X175478000Y-123313000D01*
X173518000Y-123313000D02*
X171928000Y-123313000D01*
X177038000Y-123353000D02*
X175478000Y-123353000D01*
X173518000Y-123353000D02*
X171958000Y-123353000D01*
X177008000Y-123393000D02*
X175478000Y-123393000D01*
X173518000Y-123393000D02*
X171988000Y-123393000D01*
X176976000Y-123433000D02*
X175478000Y-123433000D01*
X173518000Y-123433000D02*
X172020000Y-123433000D01*
X176943000Y-123473000D02*
X175478000Y-123473000D01*
X173518000Y-123473000D02*
X172053000Y-123473000D01*
X176909000Y-123513000D02*
X175478000Y-123513000D01*
X173518000Y-123513000D02*
X172087000Y-123513000D01*
X176873000Y-123553000D02*
X175478000Y-123553000D01*
X173518000Y-123553000D02*
X172123000Y-123553000D01*
X176837000Y-123593000D02*
X175478000Y-123593000D01*
X173518000Y-123593000D02*
X172159000Y-123593000D01*
X176799000Y-123633000D02*
X172197000Y-123633000D01*
X176760000Y-123673000D02*
X172236000Y-123673000D01*
X176720000Y-123713000D02*
X172276000Y-123713000D01*
X176678000Y-123753000D02*
X172318000Y-123753000D01*
X176635000Y-123793000D02*
X172361000Y-123793000D01*
X176590000Y-123833000D02*
X172406000Y-123833000D01*
X176543000Y-123873000D02*
X172453000Y-123873000D01*
X176495000Y-123913000D02*
X172501000Y-123913000D01*
X176444000Y-123953000D02*
X172552000Y-123953000D01*
X176392000Y-123993000D02*
X172604000Y-123993000D01*
X176337000Y-124033000D02*
X172659000Y-124033000D01*
X176279000Y-124073000D02*
X172717000Y-124073000D01*
X176219000Y-124113000D02*
X172777000Y-124113000D01*
X176156000Y-124153000D02*
X172840000Y-124153000D01*
X176089000Y-124193000D02*
X172907000Y-124193000D01*
X176018000Y-124233000D02*
X172978000Y-124233000D01*
X175943000Y-124273000D02*
X173053000Y-124273000D01*
X175862000Y-124313000D02*
X173134000Y-124313000D01*
X175776000Y-124353000D02*
X173220000Y-124353000D01*
X175682000Y-124393000D02*
X173314000Y-124393000D01*
X175579000Y-124433000D02*
X173417000Y-124433000D01*
X175464000Y-124473000D02*
X173532000Y-124473000D01*
X175332000Y-124513000D02*
X173664000Y-124513000D01*
X175174000Y-124553000D02*
X173822000Y-124553000D01*
X174966000Y-124593000D02*
X174030000Y-124593000D01*
X174498000Y-117942000D02*
X174498000Y-119142000D01*
X175148000Y-118542000D02*
X173848000Y-118542000D01*
X146495392Y-71987665D02*
G75*
G03X146338484Y-75220000I1078608J-1672335D01*
G01*
X148652608Y-71987665D02*
G75*
G02X148809516Y-75220000I-1078608J-1672335D01*
G01*
X146494163Y-72618870D02*
G75*
G03X146494000Y-74700961I1079837J-1041130D01*
G01*
X148653837Y-72618870D02*
G75*
G02X148654000Y-74700961I-1079837J-1041130D01*
G01*
X146338000Y-75220000D02*
X146494000Y-75220000D01*
X148654000Y-75220000D02*
X148810000Y-75220000D01*
X159195392Y-71987665D02*
G75*
G03X159038484Y-75220000I1078608J-1672335D01*
G01*
X161352608Y-71987665D02*
G75*
G02X161509516Y-75220000I-1078608J-1672335D01*
G01*
X159194163Y-72618870D02*
G75*
G03X159194000Y-74700961I1079837J-1041130D01*
G01*
X161353837Y-72618870D02*
G75*
G02X161354000Y-74700961I-1079837J-1041130D01*
G01*
X159038000Y-75220000D02*
X159194000Y-75220000D01*
X161354000Y-75220000D02*
X161510000Y-75220000D01*
D13*
X164058000Y-112858000D02*
G75*
G03X164008000Y-116708000I1900000J-1950000D01*
G01*
D10*
X167208000Y-112458000D02*
X166908000Y-112308000D01*
X167208000Y-112458000D02*
X167208000Y-112758000D01*
X167208000Y-116858000D02*
X167208000Y-117158000D01*
X167208000Y-117158000D02*
X166908000Y-117308000D01*
D12*
X160238000Y-102708000D02*
X160568000Y-102708000D01*
X160568000Y-102708000D02*
X160568000Y-109128000D01*
X160568000Y-109128000D02*
X160238000Y-109128000D01*
X158278000Y-102708000D02*
X157948000Y-102708000D01*
X157948000Y-102708000D02*
X157948000Y-109128000D01*
X157948000Y-109128000D02*
X158278000Y-109128000D01*
X162088000Y-109128000D02*
X161758000Y-109128000D01*
X161758000Y-109128000D02*
X161758000Y-102708000D01*
X161758000Y-102708000D02*
X162088000Y-102708000D01*
X164048000Y-109128000D02*
X164378000Y-109128000D01*
X164378000Y-109128000D02*
X164378000Y-102708000D01*
X164378000Y-102708000D02*
X164048000Y-102708000D01*
X173518000Y-109128000D02*
X173188000Y-109128000D01*
X173188000Y-109128000D02*
X173188000Y-102708000D01*
X173188000Y-102708000D02*
X173518000Y-102708000D01*
X175478000Y-109128000D02*
X175808000Y-109128000D01*
X175808000Y-109128000D02*
X175808000Y-102708000D01*
X175808000Y-102708000D02*
X175478000Y-102708000D01*
X179288000Y-102708000D02*
X179618000Y-102708000D01*
X179618000Y-102708000D02*
X179618000Y-109128000D01*
X179618000Y-109128000D02*
X179288000Y-109128000D01*
X177328000Y-102708000D02*
X176998000Y-102708000D01*
X176998000Y-102708000D02*
X176998000Y-109128000D01*
X176998000Y-109128000D02*
X177328000Y-109128000D01*
X171288000Y-112558000D02*
X171288000Y-112228000D01*
X171288000Y-112228000D02*
X177708000Y-112228000D01*
X177708000Y-112228000D02*
X177708000Y-112558000D01*
X171288000Y-114518000D02*
X171288000Y-114848000D01*
X171288000Y-114848000D02*
X177708000Y-114848000D01*
X177708000Y-114848000D02*
X177708000Y-114518000D01*
X165898000Y-109128000D02*
X165568000Y-109128000D01*
X165568000Y-109128000D02*
X165568000Y-102708000D01*
X165568000Y-102708000D02*
X165898000Y-102708000D01*
X167858000Y-109128000D02*
X168188000Y-109128000D01*
X168188000Y-109128000D02*
X168188000Y-102708000D01*
X168188000Y-102708000D02*
X167858000Y-102708000D01*
X169708000Y-109128000D02*
X169378000Y-109128000D01*
X169378000Y-109128000D02*
X169378000Y-102708000D01*
X169378000Y-102708000D02*
X169708000Y-102708000D01*
X171668000Y-109128000D02*
X171998000Y-109128000D01*
X171998000Y-109128000D02*
X171998000Y-102708000D01*
X171998000Y-102708000D02*
X171668000Y-102708000D01*
D10*
X156278000Y-100158000D02*
X156278000Y-100658000D01*
X156278000Y-100158000D02*
X155778000Y-100158000D01*
X156278000Y-112058000D02*
X156278000Y-111558000D01*
X156278000Y-112058000D02*
X155778000Y-112058000D01*
X152078000Y-112058000D02*
X152078000Y-111558000D01*
X152078000Y-112058000D02*
X152578000Y-112058000D01*
X152078000Y-100158000D02*
X152578000Y-100158000D01*
X152078000Y-100158000D02*
X152078000Y-100658000D01*
D14*
X151638000Y-123952000D02*
G75*
G03X151638000Y-123952000I-254000J0D01*
G01*
X161798000Y-123444000D02*
X161798000Y-116332000D01*
X151638000Y-123444000D02*
X151638000Y-116332000D01*
D13*
X131627715Y-101782571D02*
X131770572Y-101830190D01*
X131818191Y-101877810D01*
X131865810Y-101973048D01*
X131865810Y-102115905D01*
X131818191Y-102211143D01*
X131770572Y-102258762D01*
X131675334Y-102306381D01*
X131294381Y-102306381D01*
X131294381Y-101306381D01*
X131627715Y-101306381D01*
X131722953Y-101354000D01*
X131770572Y-101401619D01*
X131818191Y-101496857D01*
X131818191Y-101592095D01*
X131770572Y-101687333D01*
X131722953Y-101734952D01*
X131627715Y-101782571D01*
X131294381Y-101782571D01*
X132246762Y-102020667D02*
X132722953Y-102020667D01*
X132151524Y-102306381D02*
X132484857Y-101306381D01*
X132818191Y-102306381D01*
X133008667Y-101306381D02*
X133580096Y-101306381D01*
X133294381Y-102306381D02*
X133294381Y-101306381D01*
X134437239Y-102306381D02*
X133865810Y-102306381D01*
X134151524Y-102306381D02*
X134151524Y-101306381D01*
X134056286Y-101449238D01*
X133961048Y-101544476D01*
X133865810Y-101592095D01*
X165441334Y-126087143D02*
X165393715Y-126134762D01*
X165250858Y-126182381D01*
X165155620Y-126182381D01*
X165012762Y-126134762D01*
X164917524Y-126039524D01*
X164869905Y-125944286D01*
X164822286Y-125753810D01*
X164822286Y-125610952D01*
X164869905Y-125420476D01*
X164917524Y-125325238D01*
X165012762Y-125230000D01*
X165155620Y-125182381D01*
X165250858Y-125182381D01*
X165393715Y-125230000D01*
X165441334Y-125277619D01*
X166393715Y-126182381D02*
X165822286Y-126182381D01*
X166108000Y-126182381D02*
X166108000Y-125182381D01*
X166012762Y-125325238D01*
X165917524Y-125420476D01*
X165822286Y-125468095D01*
X174331334Y-126087143D02*
X174283715Y-126134762D01*
X174140858Y-126182381D01*
X174045620Y-126182381D01*
X173902762Y-126134762D01*
X173807524Y-126039524D01*
X173759905Y-125944286D01*
X173712286Y-125753810D01*
X173712286Y-125610952D01*
X173759905Y-125420476D01*
X173807524Y-125325238D01*
X173902762Y-125230000D01*
X174045620Y-125182381D01*
X174140858Y-125182381D01*
X174283715Y-125230000D01*
X174331334Y-125277619D01*
X174712286Y-125277619D02*
X174759905Y-125230000D01*
X174855143Y-125182381D01*
X175093239Y-125182381D01*
X175188477Y-125230000D01*
X175236096Y-125277619D01*
X175283715Y-125372857D01*
X175283715Y-125468095D01*
X175236096Y-125610952D01*
X174664667Y-126182381D01*
X175283715Y-126182381D01*
X145066381Y-74398095D02*
X144066381Y-74398095D01*
X144066381Y-74160000D01*
X144114000Y-74017142D01*
X144209238Y-73921904D01*
X144304476Y-73874285D01*
X144494952Y-73826666D01*
X144637810Y-73826666D01*
X144828286Y-73874285D01*
X144923524Y-73921904D01*
X145018762Y-74017142D01*
X145066381Y-74160000D01*
X145066381Y-74398095D01*
X145066381Y-72874285D02*
X145066381Y-73445714D01*
X145066381Y-73160000D02*
X144066381Y-73160000D01*
X144209238Y-73255238D01*
X144304476Y-73350476D01*
X144352095Y-73445714D01*
X157766381Y-74398095D02*
X156766381Y-74398095D01*
X156766381Y-74160000D01*
X156814000Y-74017142D01*
X156909238Y-73921904D01*
X157004476Y-73874285D01*
X157194952Y-73826666D01*
X157337810Y-73826666D01*
X157528286Y-73874285D01*
X157623524Y-73921904D01*
X157718762Y-74017142D01*
X157766381Y-74160000D01*
X157766381Y-74398095D01*
X156861619Y-73445714D02*
X156814000Y-73398095D01*
X156766381Y-73302857D01*
X156766381Y-73064761D01*
X156814000Y-72969523D01*
X156861619Y-72921904D01*
X156956857Y-72874285D01*
X157052095Y-72874285D01*
X157194952Y-72921904D01*
X157766381Y-73493333D01*
X157766381Y-72874285D01*
X165258762Y-111799619D02*
X165163524Y-111752000D01*
X165068286Y-111656762D01*
X164925429Y-111513905D01*
X164830190Y-111466286D01*
X164734952Y-111466286D01*
X164782571Y-111704381D02*
X164687333Y-111656762D01*
X164592095Y-111561524D01*
X164544476Y-111371048D01*
X164544476Y-111037714D01*
X164592095Y-110847238D01*
X164687333Y-110752000D01*
X164782571Y-110704381D01*
X164973048Y-110704381D01*
X165068286Y-110752000D01*
X165163524Y-110847238D01*
X165211143Y-111037714D01*
X165211143Y-111371048D01*
X165163524Y-111561524D01*
X165068286Y-111656762D01*
X164973048Y-111704381D01*
X164782571Y-111704381D01*
X166163524Y-111704381D02*
X165592095Y-111704381D01*
X165877809Y-111704381D02*
X165877809Y-110704381D01*
X165782571Y-110847238D01*
X165687333Y-110942476D01*
X165592095Y-110990095D01*
X159091334Y-100528381D02*
X158758000Y-100052190D01*
X158519905Y-100528381D02*
X158519905Y-99528381D01*
X158900858Y-99528381D01*
X158996096Y-99576000D01*
X159043715Y-99623619D01*
X159091334Y-99718857D01*
X159091334Y-99861714D01*
X159043715Y-99956952D01*
X158996096Y-100004571D01*
X158900858Y-100052190D01*
X158519905Y-100052190D01*
X160043715Y-100528381D02*
X159472286Y-100528381D01*
X159758000Y-100528381D02*
X159758000Y-99528381D01*
X159662762Y-99671238D01*
X159567524Y-99766476D01*
X159472286Y-99814095D01*
X162901334Y-100528381D02*
X162568000Y-100052190D01*
X162329905Y-100528381D02*
X162329905Y-99528381D01*
X162710858Y-99528381D01*
X162806096Y-99576000D01*
X162853715Y-99623619D01*
X162901334Y-99718857D01*
X162901334Y-99861714D01*
X162853715Y-99956952D01*
X162806096Y-100004571D01*
X162710858Y-100052190D01*
X162329905Y-100052190D01*
X163282286Y-99623619D02*
X163329905Y-99576000D01*
X163425143Y-99528381D01*
X163663239Y-99528381D01*
X163758477Y-99576000D01*
X163806096Y-99623619D01*
X163853715Y-99718857D01*
X163853715Y-99814095D01*
X163806096Y-99956952D01*
X163234667Y-100528381D01*
X163853715Y-100528381D01*
X174331334Y-100528381D02*
X173998000Y-100052190D01*
X173759905Y-100528381D02*
X173759905Y-99528381D01*
X174140858Y-99528381D01*
X174236096Y-99576000D01*
X174283715Y-99623619D01*
X174331334Y-99718857D01*
X174331334Y-99861714D01*
X174283715Y-99956952D01*
X174236096Y-100004571D01*
X174140858Y-100052190D01*
X173759905Y-100052190D01*
X174664667Y-99528381D02*
X175283715Y-99528381D01*
X174950381Y-99909333D01*
X175093239Y-99909333D01*
X175188477Y-99956952D01*
X175236096Y-100004571D01*
X175283715Y-100099810D01*
X175283715Y-100337905D01*
X175236096Y-100433143D01*
X175188477Y-100480762D01*
X175093239Y-100528381D01*
X174807524Y-100528381D01*
X174712286Y-100480762D01*
X174664667Y-100433143D01*
X178141334Y-100528381D02*
X177808000Y-100052190D01*
X177569905Y-100528381D02*
X177569905Y-99528381D01*
X177950858Y-99528381D01*
X178046096Y-99576000D01*
X178093715Y-99623619D01*
X178141334Y-99718857D01*
X178141334Y-99861714D01*
X178093715Y-99956952D01*
X178046096Y-100004571D01*
X177950858Y-100052190D01*
X177569905Y-100052190D01*
X178998477Y-99861714D02*
X178998477Y-100528381D01*
X178760381Y-99480762D02*
X178522286Y-100195048D01*
X179141334Y-100195048D01*
X174077334Y-111958381D02*
X173744000Y-111482190D01*
X173505905Y-111958381D02*
X173505905Y-110958381D01*
X173886858Y-110958381D01*
X173982096Y-111006000D01*
X174029715Y-111053619D01*
X174077334Y-111148857D01*
X174077334Y-111291714D01*
X174029715Y-111386952D01*
X173982096Y-111434571D01*
X173886858Y-111482190D01*
X173505905Y-111482190D01*
X174982096Y-110958381D02*
X174505905Y-110958381D01*
X174458286Y-111434571D01*
X174505905Y-111386952D01*
X174601143Y-111339333D01*
X174839239Y-111339333D01*
X174934477Y-111386952D01*
X174982096Y-111434571D01*
X175029715Y-111529810D01*
X175029715Y-111767905D01*
X174982096Y-111863143D01*
X174934477Y-111910762D01*
X174839239Y-111958381D01*
X174601143Y-111958381D01*
X174505905Y-111910762D01*
X174458286Y-111863143D01*
X166711334Y-100528381D02*
X166378000Y-100052190D01*
X166139905Y-100528381D02*
X166139905Y-99528381D01*
X166520858Y-99528381D01*
X166616096Y-99576000D01*
X166663715Y-99623619D01*
X166711334Y-99718857D01*
X166711334Y-99861714D01*
X166663715Y-99956952D01*
X166616096Y-100004571D01*
X166520858Y-100052190D01*
X166139905Y-100052190D01*
X167568477Y-99528381D02*
X167378000Y-99528381D01*
X167282762Y-99576000D01*
X167235143Y-99623619D01*
X167139905Y-99766476D01*
X167092286Y-99956952D01*
X167092286Y-100337905D01*
X167139905Y-100433143D01*
X167187524Y-100480762D01*
X167282762Y-100528381D01*
X167473239Y-100528381D01*
X167568477Y-100480762D01*
X167616096Y-100433143D01*
X167663715Y-100337905D01*
X167663715Y-100099810D01*
X167616096Y-100004571D01*
X167568477Y-99956952D01*
X167473239Y-99909333D01*
X167282762Y-99909333D01*
X167187524Y-99956952D01*
X167139905Y-100004571D01*
X167092286Y-100099810D01*
X170775334Y-100528381D02*
X170442000Y-100052190D01*
X170203905Y-100528381D02*
X170203905Y-99528381D01*
X170584858Y-99528381D01*
X170680096Y-99576000D01*
X170727715Y-99623619D01*
X170775334Y-99718857D01*
X170775334Y-99861714D01*
X170727715Y-99956952D01*
X170680096Y-100004571D01*
X170584858Y-100052190D01*
X170203905Y-100052190D01*
X171108667Y-99528381D02*
X171775334Y-99528381D01*
X171346762Y-100528381D01*
X152146095Y-113434762D02*
X152288952Y-113482381D01*
X152527048Y-113482381D01*
X152622286Y-113434762D01*
X152669905Y-113387143D01*
X152717524Y-113291905D01*
X152717524Y-113196667D01*
X152669905Y-113101429D01*
X152622286Y-113053810D01*
X152527048Y-113006190D01*
X152336571Y-112958571D01*
X152241333Y-112910952D01*
X152193714Y-112863333D01*
X152146095Y-112768095D01*
X152146095Y-112672857D01*
X152193714Y-112577619D01*
X152241333Y-112530000D01*
X152336571Y-112482381D01*
X152574667Y-112482381D01*
X152717524Y-112530000D01*
X153669905Y-113482381D02*
X153098476Y-113482381D01*
X153384190Y-113482381D02*
X153384190Y-112482381D01*
X153288952Y-112625238D01*
X153193714Y-112720476D01*
X153098476Y-112768095D01*
X155956095Y-114006381D02*
X155956095Y-114815905D01*
X156003714Y-114911143D01*
X156051333Y-114958762D01*
X156146571Y-115006381D01*
X156337048Y-115006381D01*
X156432286Y-114958762D01*
X156479905Y-114911143D01*
X156527524Y-114815905D01*
X156527524Y-114006381D01*
X157527524Y-115006381D02*
X156956095Y-115006381D01*
X157241809Y-115006381D02*
X157241809Y-114006381D01*
X157146571Y-114149238D01*
X157051333Y-114244476D01*
X156956095Y-114292095D01*
D15*
G36*
X179197000Y-98933000D02*
X128651000Y-98933000D01*
X128651000Y-48387000D01*
X179197000Y-48387000D01*
X179197000Y-98933000D01*
X179197000Y-98933000D01*
G37*
X179197000Y-98933000D02*
X128651000Y-98933000D01*
X128651000Y-48387000D01*
X179197000Y-48387000D01*
X179197000Y-98933000D01*
M02*
