G04 #@! TF.FileFunction,Copper,L1,Top,Signal*
%FSLAX46Y46*%
G04 Gerber Fmt 4.6, Leading zero omitted, Abs format (unit mm)*
G04 Created by KiCad (PCBNEW 4.0.7) date 07/03/23 18:34:59*
%MOMM*%
%LPD*%
G01*
G04 APERTURE LIST*
%ADD10C,0.100000*%
%ADD11R,2.170000X2.170000*%
%ADD12C,2.500000*%
%ADD13R,1.600000X1.600000*%
%ADD14C,1.600000*%
%ADD15R,1.800000X1.800000*%
%ADD16C,1.800000*%
%ADD17O,1.500000X1.000000*%
%ADD18R,1.500000X1.000000*%
%ADD19O,1.600000X1.600000*%
%ADD20R,1.900000X1.900000*%
%ADD21C,1.900000*%
%ADD22C,1.524000*%
%ADD23C,0.762000*%
%ADD24C,0.762000*%
%ADD25C,0.254000*%
G04 APERTURE END LIST*
D10*
D11*
X138938000Y-121158000D03*
D12*
X138938000Y-101158000D03*
D13*
X165608000Y-121158000D03*
D14*
X165608000Y-123158000D03*
D13*
X174498000Y-120142000D03*
D14*
X174498000Y-122642000D03*
D15*
X147574000Y-74930000D03*
D16*
X147574000Y-72390000D03*
D15*
X160274000Y-74930000D03*
D16*
X160274000Y-72390000D03*
D17*
X165608000Y-114808000D03*
X165608000Y-113538000D03*
D18*
X165608000Y-116078000D03*
D14*
X159258000Y-102108000D03*
D19*
X159258000Y-109728000D03*
D14*
X163068000Y-109728000D03*
D19*
X163068000Y-102108000D03*
D14*
X174498000Y-109728000D03*
D19*
X174498000Y-102108000D03*
D14*
X178308000Y-102108000D03*
D19*
X178308000Y-109728000D03*
D14*
X170688000Y-113538000D03*
D19*
X178308000Y-113538000D03*
D14*
X166878000Y-109728000D03*
D19*
X166878000Y-102108000D03*
D14*
X170688000Y-109728000D03*
D19*
X170688000Y-102108000D03*
D20*
X154178000Y-108458000D03*
D21*
X154178000Y-105958000D03*
X154178000Y-103458000D03*
D22*
X152908000Y-116078000D03*
X155448000Y-116078000D03*
X157988000Y-116078000D03*
X160528000Y-116078000D03*
X160528000Y-123698000D03*
X157988000Y-123698000D03*
X152908000Y-123698000D03*
X155448000Y-123698000D03*
D23*
X168910000Y-110490000D03*
D24*
X138938000Y-101158000D02*
X151878000Y-101158000D01*
X151878000Y-101158000D02*
X154178000Y-103458000D01*
D25*
X157988000Y-116078000D02*
X157988000Y-118872000D01*
X160274000Y-121158000D02*
X165608000Y-121158000D01*
X157988000Y-118872000D02*
X160274000Y-121158000D01*
X174498000Y-109728000D02*
X174498000Y-108458000D01*
X178308000Y-104648000D02*
X178308000Y-102108000D01*
X174498000Y-108458000D02*
X178308000Y-104648000D01*
X178308000Y-113538000D02*
X174498000Y-109728000D01*
X174498000Y-120142000D02*
X174498000Y-118872000D01*
X178308000Y-115062000D02*
X178308000Y-113538000D01*
X174498000Y-118872000D02*
X178308000Y-115062000D01*
X165608000Y-113538000D02*
X167640000Y-113538000D01*
X168910000Y-112268000D02*
X168910000Y-110490000D01*
X167640000Y-113538000D02*
X168910000Y-112268000D01*
X165608000Y-114808000D02*
X169418000Y-114808000D01*
X169418000Y-114808000D02*
X170688000Y-113538000D01*
X152908000Y-116078000D02*
X160528000Y-123698000D01*
X154178000Y-105958000D02*
X152360000Y-105958000D01*
X151130000Y-114300000D02*
X152908000Y-116078000D01*
X151130000Y-107188000D02*
X151130000Y-114300000D01*
X152360000Y-105958000D02*
X151130000Y-107188000D01*
D24*
X166878000Y-109728000D02*
X166878000Y-105958000D01*
X166878000Y-105958000D02*
X166878000Y-106172000D01*
X166878000Y-106172000D02*
X166878000Y-105958000D01*
X159258000Y-102108000D02*
X159258000Y-105156000D01*
X159258000Y-105156000D02*
X160060000Y-105958000D01*
X154178000Y-105958000D02*
X160060000Y-105958000D01*
X160060000Y-105958000D02*
X166878000Y-105958000D01*
X166878000Y-105958000D02*
X168442000Y-105958000D01*
X170688000Y-108204000D02*
X170688000Y-109728000D01*
X168442000Y-105958000D02*
X170688000Y-108204000D01*
D25*
X155448000Y-116078000D02*
X155448000Y-113538000D01*
X155448000Y-113538000D02*
X159258000Y-109728000D01*
X159258000Y-109728000D02*
X163068000Y-109728000D01*
G36*
X180454300Y-126606300D02*
X127393700Y-126606300D01*
X127393700Y-124678213D01*
X152107392Y-124678213D01*
X152176857Y-124920397D01*
X152700302Y-125107144D01*
X153255368Y-125079362D01*
X153639143Y-124920397D01*
X153708608Y-124678213D01*
X152908000Y-123877605D01*
X152107392Y-124678213D01*
X127393700Y-124678213D01*
X127393700Y-123490302D01*
X151498856Y-123490302D01*
X151526638Y-124045368D01*
X151685603Y-124429143D01*
X151927787Y-124498608D01*
X152728395Y-123698000D01*
X153087605Y-123698000D01*
X153888213Y-124498608D01*
X154130397Y-124429143D01*
X154307852Y-123931742D01*
X154478446Y-124344612D01*
X154799697Y-124666423D01*
X155219646Y-124840801D01*
X155674359Y-124841198D01*
X156094612Y-124667554D01*
X156416423Y-124346303D01*
X156590801Y-123926354D01*
X156590802Y-123924359D01*
X156844802Y-123924359D01*
X157018446Y-124344612D01*
X157339697Y-124666423D01*
X157759646Y-124840801D01*
X158214359Y-124841198D01*
X158634612Y-124667554D01*
X158956423Y-124346303D01*
X159130801Y-123926354D01*
X159131198Y-123471641D01*
X158957554Y-123051388D01*
X158636303Y-122729577D01*
X158216354Y-122555199D01*
X157761641Y-122554802D01*
X157341388Y-122728446D01*
X157019577Y-123049697D01*
X156845199Y-123469646D01*
X156844802Y-123924359D01*
X156590802Y-123924359D01*
X156591198Y-123471641D01*
X156417554Y-123051388D01*
X156096303Y-122729577D01*
X155676354Y-122555199D01*
X155221641Y-122554802D01*
X154801388Y-122728446D01*
X154479577Y-123049697D01*
X154305199Y-123469646D01*
X154305030Y-123663660D01*
X154289362Y-123350632D01*
X154130397Y-122966857D01*
X153888213Y-122897392D01*
X153087605Y-123698000D01*
X152728395Y-123698000D01*
X151927787Y-122897392D01*
X151685603Y-122966857D01*
X151498856Y-123490302D01*
X127393700Y-123490302D01*
X127393700Y-121443750D01*
X137218000Y-121443750D01*
X137218000Y-122369309D01*
X137314673Y-122602698D01*
X137493301Y-122781327D01*
X137726690Y-122878000D01*
X138652250Y-122878000D01*
X138811000Y-122719250D01*
X138811000Y-121285000D01*
X139065000Y-121285000D01*
X139065000Y-122719250D01*
X139223750Y-122878000D01*
X140149310Y-122878000D01*
X140382699Y-122781327D01*
X140446238Y-122717787D01*
X152107392Y-122717787D01*
X152908000Y-123518395D01*
X153708608Y-122717787D01*
X153639143Y-122475603D01*
X153115698Y-122288856D01*
X152560632Y-122316638D01*
X152176857Y-122475603D01*
X152107392Y-122717787D01*
X140446238Y-122717787D01*
X140561327Y-122602698D01*
X140658000Y-122369309D01*
X140658000Y-121443750D01*
X140499250Y-121285000D01*
X139065000Y-121285000D01*
X138811000Y-121285000D01*
X137376750Y-121285000D01*
X137218000Y-121443750D01*
X127393700Y-121443750D01*
X127393700Y-119946691D01*
X137218000Y-119946691D01*
X137218000Y-120872250D01*
X137376750Y-121031000D01*
X138811000Y-121031000D01*
X138811000Y-119596750D01*
X139065000Y-119596750D01*
X139065000Y-121031000D01*
X140499250Y-121031000D01*
X140658000Y-120872250D01*
X140658000Y-119946691D01*
X140561327Y-119713302D01*
X140382699Y-119534673D01*
X140149310Y-119438000D01*
X139223750Y-119438000D01*
X139065000Y-119596750D01*
X138811000Y-119596750D01*
X138652250Y-119438000D01*
X137726690Y-119438000D01*
X137493301Y-119534673D01*
X137314673Y-119713302D01*
X137218000Y-119946691D01*
X127393700Y-119946691D01*
X127393700Y-101481003D01*
X137306718Y-101481003D01*
X137554499Y-102080680D01*
X138012907Y-102539888D01*
X138612151Y-102788716D01*
X139261003Y-102789282D01*
X139860680Y-102541501D01*
X140319888Y-102083093D01*
X140387610Y-101920000D01*
X151562370Y-101920000D01*
X152847220Y-103204851D01*
X152846769Y-103721591D01*
X153048975Y-104210966D01*
X153423065Y-104585709D01*
X153717694Y-104708050D01*
X153425034Y-104828975D01*
X153050291Y-105203065D01*
X152947754Y-105450000D01*
X152360000Y-105450000D01*
X152165597Y-105488669D01*
X152000790Y-105598790D01*
X150770790Y-106828790D01*
X150660669Y-106993597D01*
X150622000Y-107188000D01*
X150622000Y-114300000D01*
X150660669Y-114494403D01*
X150770790Y-114659210D01*
X151822714Y-115711134D01*
X151765199Y-115849646D01*
X151764802Y-116304359D01*
X151938446Y-116724612D01*
X152259697Y-117046423D01*
X152679646Y-117220801D01*
X153134359Y-117221198D01*
X153274764Y-117163184D01*
X159442714Y-123331134D01*
X159385199Y-123469646D01*
X159384802Y-123924359D01*
X159558446Y-124344612D01*
X159879697Y-124666423D01*
X160299646Y-124840801D01*
X160754359Y-124841198D01*
X161174612Y-124667554D01*
X161496423Y-124346303D01*
X161571397Y-124165745D01*
X164779861Y-124165745D01*
X164853995Y-124411864D01*
X165391223Y-124604965D01*
X165961454Y-124577778D01*
X166362005Y-124411864D01*
X166436139Y-124165745D01*
X165608000Y-123337605D01*
X164779861Y-124165745D01*
X161571397Y-124165745D01*
X161670801Y-123926354D01*
X161671198Y-123471641D01*
X161497554Y-123051388D01*
X161176303Y-122729577D01*
X160756354Y-122555199D01*
X160301641Y-122554802D01*
X160161236Y-122612816D01*
X153993286Y-116444866D01*
X154050801Y-116306354D01*
X154050802Y-116304359D01*
X154304802Y-116304359D01*
X154478446Y-116724612D01*
X154799697Y-117046423D01*
X155219646Y-117220801D01*
X155674359Y-117221198D01*
X156094612Y-117047554D01*
X156416423Y-116726303D01*
X156590801Y-116306354D01*
X156590802Y-116304359D01*
X156844802Y-116304359D01*
X157018446Y-116724612D01*
X157339697Y-117046423D01*
X157480000Y-117104682D01*
X157480000Y-118872000D01*
X157518669Y-119066403D01*
X157628790Y-119231210D01*
X159914790Y-121517210D01*
X160079596Y-121627331D01*
X160274000Y-121666000D01*
X164419536Y-121666000D01*
X164419536Y-121958000D01*
X164446103Y-122099190D01*
X164506819Y-122193545D01*
X164485378Y-122214986D01*
X164600253Y-122329861D01*
X164354136Y-122403995D01*
X164161035Y-122941223D01*
X164188222Y-123511454D01*
X164354136Y-123912005D01*
X164600255Y-123986139D01*
X165428395Y-123158000D01*
X165414252Y-123143858D01*
X165593858Y-122964252D01*
X165608000Y-122978395D01*
X165622142Y-122964252D01*
X165801748Y-123143858D01*
X165787605Y-123158000D01*
X166615745Y-123986139D01*
X166861864Y-123912005D01*
X166956130Y-123649745D01*
X173669861Y-123649745D01*
X173743995Y-123895864D01*
X174281223Y-124088965D01*
X174851454Y-124061778D01*
X175252005Y-123895864D01*
X175326139Y-123649745D01*
X174498000Y-122821605D01*
X173669861Y-123649745D01*
X166956130Y-123649745D01*
X167054965Y-123374777D01*
X167027778Y-122804546D01*
X166870657Y-122425223D01*
X173051035Y-122425223D01*
X173078222Y-122995454D01*
X173244136Y-123396005D01*
X173490255Y-123470139D01*
X174318395Y-122642000D01*
X174677605Y-122642000D01*
X175505745Y-123470139D01*
X175751864Y-123396005D01*
X175944965Y-122858777D01*
X175917778Y-122288546D01*
X175751864Y-121887995D01*
X175505745Y-121813861D01*
X174677605Y-122642000D01*
X174318395Y-122642000D01*
X173490255Y-121813861D01*
X173244136Y-121887995D01*
X173051035Y-122425223D01*
X166870657Y-122425223D01*
X166861864Y-122403995D01*
X166615747Y-122329861D01*
X166730622Y-122214986D01*
X166708588Y-122192952D01*
X166765859Y-122109134D01*
X166796464Y-121958000D01*
X166796464Y-120358000D01*
X166769897Y-120216810D01*
X166686454Y-120087135D01*
X166559134Y-120000141D01*
X166408000Y-119969536D01*
X164808000Y-119969536D01*
X164666810Y-119996103D01*
X164537135Y-120079546D01*
X164450141Y-120206866D01*
X164419536Y-120358000D01*
X164419536Y-120650000D01*
X160484420Y-120650000D01*
X159176420Y-119342000D01*
X173309536Y-119342000D01*
X173309536Y-120942000D01*
X173336103Y-121083190D01*
X173419546Y-121212865D01*
X173546866Y-121299859D01*
X173698000Y-121330464D01*
X173883227Y-121330464D01*
X173743995Y-121388136D01*
X173669861Y-121634255D01*
X174498000Y-122462395D01*
X175326139Y-121634255D01*
X175252005Y-121388136D01*
X175091555Y-121330464D01*
X175298000Y-121330464D01*
X175439190Y-121303897D01*
X175568865Y-121220454D01*
X175655859Y-121093134D01*
X175686464Y-120942000D01*
X175686464Y-119342000D01*
X175659897Y-119200810D01*
X175576454Y-119071135D01*
X175449134Y-118984141D01*
X175298000Y-118953536D01*
X175134884Y-118953536D01*
X178667210Y-115421210D01*
X178777331Y-115256403D01*
X178816000Y-115062000D01*
X178816000Y-114607110D01*
X179166230Y-114373093D01*
X179422239Y-113989949D01*
X179512137Y-113538000D01*
X179422239Y-113086051D01*
X179166230Y-112702907D01*
X178783086Y-112446898D01*
X178331137Y-112357000D01*
X178284863Y-112357000D01*
X177918328Y-112429908D01*
X175612359Y-110123939D01*
X175631832Y-110077041D01*
X176916086Y-110077041D01*
X177155611Y-110583134D01*
X177570577Y-110959041D01*
X177958961Y-111119904D01*
X178181000Y-110997915D01*
X178181000Y-109855000D01*
X178435000Y-109855000D01*
X178435000Y-110997915D01*
X178657039Y-111119904D01*
X179045423Y-110959041D01*
X179460389Y-110583134D01*
X179699914Y-110077041D01*
X179578629Y-109855000D01*
X178435000Y-109855000D01*
X178181000Y-109855000D01*
X177037371Y-109855000D01*
X176916086Y-110077041D01*
X175631832Y-110077041D01*
X175678794Y-109963946D01*
X175679204Y-109494115D01*
X175631623Y-109378959D01*
X176916086Y-109378959D01*
X177037371Y-109601000D01*
X178181000Y-109601000D01*
X178181000Y-108458085D01*
X178435000Y-108458085D01*
X178435000Y-109601000D01*
X179578629Y-109601000D01*
X179699914Y-109378959D01*
X179460389Y-108872866D01*
X179045423Y-108496959D01*
X178657039Y-108336096D01*
X178435000Y-108458085D01*
X178181000Y-108458085D01*
X177958961Y-108336096D01*
X177570577Y-108496959D01*
X177155611Y-108872866D01*
X176916086Y-109378959D01*
X175631623Y-109378959D01*
X175499787Y-109059891D01*
X175167856Y-108727381D01*
X175011828Y-108662592D01*
X178667210Y-105007210D01*
X178777331Y-104842403D01*
X178816000Y-104648000D01*
X178816000Y-103175942D01*
X178976109Y-103109787D01*
X179308619Y-102777856D01*
X179488794Y-102343946D01*
X179489204Y-101874115D01*
X179309787Y-101439891D01*
X178977856Y-101107381D01*
X178543946Y-100927206D01*
X178074115Y-100926796D01*
X177639891Y-101106213D01*
X177307381Y-101438144D01*
X177127206Y-101872054D01*
X177126796Y-102341885D01*
X177306213Y-102776109D01*
X177638144Y-103108619D01*
X177800000Y-103175827D01*
X177800000Y-104437580D01*
X174138790Y-108098790D01*
X174028669Y-108263597D01*
X173990000Y-108458000D01*
X173990000Y-108660058D01*
X173829891Y-108726213D01*
X173497381Y-109058144D01*
X173317206Y-109492054D01*
X173316796Y-109961885D01*
X173496213Y-110396109D01*
X173828144Y-110728619D01*
X174262054Y-110908794D01*
X174731885Y-110909204D01*
X174893858Y-110842278D01*
X177184448Y-113132868D01*
X177103863Y-113538000D01*
X177193761Y-113989949D01*
X177449770Y-114373093D01*
X177800000Y-114607110D01*
X177800000Y-114851580D01*
X174138790Y-118512790D01*
X174028669Y-118677597D01*
X173990000Y-118872000D01*
X173990000Y-118953536D01*
X173698000Y-118953536D01*
X173556810Y-118980103D01*
X173427135Y-119063546D01*
X173340141Y-119190866D01*
X173309536Y-119342000D01*
X159176420Y-119342000D01*
X158496000Y-118661580D01*
X158496000Y-117104827D01*
X158634612Y-117047554D01*
X158956423Y-116726303D01*
X159130801Y-116306354D01*
X159130802Y-116304359D01*
X159384802Y-116304359D01*
X159558446Y-116724612D01*
X159879697Y-117046423D01*
X160299646Y-117220801D01*
X160754359Y-117221198D01*
X161174612Y-117047554D01*
X161496423Y-116726303D01*
X161646968Y-116363750D01*
X164223000Y-116363750D01*
X164223000Y-116704309D01*
X164319673Y-116937698D01*
X164498301Y-117116327D01*
X164731690Y-117213000D01*
X165322250Y-117213000D01*
X165481000Y-117054250D01*
X165481000Y-116205000D01*
X165735000Y-116205000D01*
X165735000Y-117054250D01*
X165893750Y-117213000D01*
X166484310Y-117213000D01*
X166717699Y-117116327D01*
X166896327Y-116937698D01*
X166993000Y-116704309D01*
X166993000Y-116363750D01*
X166834250Y-116205000D01*
X165735000Y-116205000D01*
X165481000Y-116205000D01*
X164381750Y-116205000D01*
X164223000Y-116363750D01*
X161646968Y-116363750D01*
X161670801Y-116306354D01*
X161671198Y-115851641D01*
X161497554Y-115431388D01*
X161176303Y-115109577D01*
X160756354Y-114935199D01*
X160301641Y-114934802D01*
X159881388Y-115108446D01*
X159559577Y-115429697D01*
X159385199Y-115849646D01*
X159384802Y-116304359D01*
X159130802Y-116304359D01*
X159131198Y-115851641D01*
X158957554Y-115431388D01*
X158636303Y-115109577D01*
X158216354Y-114935199D01*
X157761641Y-114934802D01*
X157341388Y-115108446D01*
X157019577Y-115429697D01*
X156845199Y-115849646D01*
X156844802Y-116304359D01*
X156590802Y-116304359D01*
X156591198Y-115851641D01*
X156417554Y-115431388D01*
X156096303Y-115109577D01*
X155956000Y-115051318D01*
X155956000Y-113748420D01*
X158852868Y-110851552D01*
X159258000Y-110932137D01*
X159709949Y-110842239D01*
X160093093Y-110586230D01*
X160327110Y-110236000D01*
X162000058Y-110236000D01*
X162066213Y-110396109D01*
X162398144Y-110728619D01*
X162832054Y-110908794D01*
X163301885Y-110909204D01*
X163736109Y-110729787D01*
X164068619Y-110397856D01*
X164248794Y-109963946D01*
X164249204Y-109494115D01*
X164069787Y-109059891D01*
X163737856Y-108727381D01*
X163303946Y-108547206D01*
X162834115Y-108546796D01*
X162399891Y-108726213D01*
X162067381Y-109058144D01*
X162000173Y-109220000D01*
X160327110Y-109220000D01*
X160093093Y-108869770D01*
X159709949Y-108613761D01*
X159258000Y-108523863D01*
X158806051Y-108613761D01*
X158422907Y-108869770D01*
X158166898Y-109252914D01*
X158077000Y-109704863D01*
X158077000Y-109751137D01*
X158149908Y-110117672D01*
X155088790Y-113178790D01*
X154978669Y-113343597D01*
X154940000Y-113538000D01*
X154940000Y-115051173D01*
X154801388Y-115108446D01*
X154479577Y-115429697D01*
X154305199Y-115849646D01*
X154304802Y-116304359D01*
X154050802Y-116304359D01*
X154051198Y-115851641D01*
X153877554Y-115431388D01*
X153556303Y-115109577D01*
X153136354Y-114935199D01*
X152681641Y-114934802D01*
X152541236Y-114992816D01*
X151638000Y-114089580D01*
X151638000Y-107398420D01*
X152570420Y-106466000D01*
X152947757Y-106466000D01*
X153048975Y-106710966D01*
X153423065Y-107085709D01*
X153504529Y-107119536D01*
X153228000Y-107119536D01*
X153086810Y-107146103D01*
X152957135Y-107229546D01*
X152870141Y-107356866D01*
X152839536Y-107508000D01*
X152839536Y-109408000D01*
X152866103Y-109549190D01*
X152949546Y-109678865D01*
X153076866Y-109765859D01*
X153228000Y-109796464D01*
X155128000Y-109796464D01*
X155269190Y-109769897D01*
X155398865Y-109686454D01*
X155485859Y-109559134D01*
X155516464Y-109408000D01*
X155516464Y-107508000D01*
X155489897Y-107366810D01*
X155406454Y-107237135D01*
X155279134Y-107150141D01*
X155128000Y-107119536D01*
X154852284Y-107119536D01*
X154930966Y-107087025D01*
X155298632Y-106720000D01*
X166116000Y-106720000D01*
X166116000Y-108819941D01*
X165877381Y-109058144D01*
X165697206Y-109492054D01*
X165696796Y-109961885D01*
X165876213Y-110396109D01*
X166208144Y-110728619D01*
X166642054Y-110908794D01*
X167111885Y-110909204D01*
X167546109Y-110729787D01*
X167878619Y-110397856D01*
X168058794Y-109963946D01*
X168059204Y-109494115D01*
X167879787Y-109059891D01*
X167640000Y-108819686D01*
X167640000Y-106720000D01*
X168126370Y-106720000D01*
X169926000Y-108519631D01*
X169926000Y-108819941D01*
X169687381Y-109058144D01*
X169507206Y-109492054D01*
X169506796Y-109961885D01*
X169540200Y-110042730D01*
X169342202Y-109844385D01*
X169062236Y-109728133D01*
X168759094Y-109727868D01*
X168478926Y-109843632D01*
X168264385Y-110057798D01*
X168148133Y-110337764D01*
X168147868Y-110640906D01*
X168263632Y-110921074D01*
X168402000Y-111059684D01*
X168402000Y-112057580D01*
X167429580Y-113030000D01*
X166579934Y-113030000D01*
X166503119Y-112915039D01*
X166217302Y-112724062D01*
X165880158Y-112657000D01*
X165335842Y-112657000D01*
X164998698Y-112724062D01*
X164712881Y-112915039D01*
X164521904Y-113200856D01*
X164454842Y-113538000D01*
X164521904Y-113875144D01*
X164712881Y-114160961D01*
X164730899Y-114173000D01*
X164712881Y-114185039D01*
X164521904Y-114470856D01*
X164454842Y-114808000D01*
X164500725Y-115038669D01*
X164498301Y-115039673D01*
X164319673Y-115218302D01*
X164223000Y-115451691D01*
X164223000Y-115792250D01*
X164381750Y-115951000D01*
X165481000Y-115951000D01*
X165481000Y-115931000D01*
X165735000Y-115931000D01*
X165735000Y-115951000D01*
X166834250Y-115951000D01*
X166993000Y-115792250D01*
X166993000Y-115451691D01*
X166936795Y-115316000D01*
X169418000Y-115316000D01*
X169612403Y-115277331D01*
X169777210Y-115167210D01*
X170292061Y-114652359D01*
X170452054Y-114718794D01*
X170921885Y-114719204D01*
X171356109Y-114539787D01*
X171688619Y-114207856D01*
X171868794Y-113773946D01*
X171869204Y-113304115D01*
X171689787Y-112869891D01*
X171357856Y-112537381D01*
X170923946Y-112357206D01*
X170454115Y-112356796D01*
X170019891Y-112536213D01*
X169687381Y-112868144D01*
X169507206Y-113302054D01*
X169506796Y-113771885D01*
X169573722Y-113933858D01*
X169207580Y-114300000D01*
X166579934Y-114300000D01*
X166503119Y-114185039D01*
X166485101Y-114173000D01*
X166503119Y-114160961D01*
X166579934Y-114046000D01*
X167640000Y-114046000D01*
X167834403Y-114007331D01*
X167999210Y-113897210D01*
X169269210Y-112627210D01*
X169379331Y-112462404D01*
X169385746Y-112430150D01*
X169418000Y-112268000D01*
X169418000Y-111059576D01*
X169555615Y-110922202D01*
X169671867Y-110642236D01*
X169672112Y-110361982D01*
X169686213Y-110396109D01*
X170018144Y-110728619D01*
X170452054Y-110908794D01*
X170921885Y-110909204D01*
X171356109Y-110729787D01*
X171688619Y-110397856D01*
X171868794Y-109963946D01*
X171869204Y-109494115D01*
X171689787Y-109059891D01*
X171450000Y-108819686D01*
X171450000Y-108204000D01*
X171391996Y-107912395D01*
X171325834Y-107813377D01*
X171226816Y-107665185D01*
X168980815Y-105419185D01*
X168980814Y-105419184D01*
X168733605Y-105254004D01*
X168442000Y-105196000D01*
X160375631Y-105196000D01*
X160020000Y-104840370D01*
X160020000Y-103016059D01*
X160258619Y-102777856D01*
X160438794Y-102343946D01*
X160439020Y-102084863D01*
X161887000Y-102084863D01*
X161887000Y-102131137D01*
X161976898Y-102583086D01*
X162232907Y-102966230D01*
X162616051Y-103222239D01*
X163068000Y-103312137D01*
X163519949Y-103222239D01*
X163903093Y-102966230D01*
X164159102Y-102583086D01*
X164249000Y-102131137D01*
X164249000Y-102084863D01*
X165697000Y-102084863D01*
X165697000Y-102131137D01*
X165786898Y-102583086D01*
X166042907Y-102966230D01*
X166426051Y-103222239D01*
X166878000Y-103312137D01*
X167329949Y-103222239D01*
X167713093Y-102966230D01*
X167969102Y-102583086D01*
X168059000Y-102131137D01*
X168059000Y-102084863D01*
X169507000Y-102084863D01*
X169507000Y-102131137D01*
X169596898Y-102583086D01*
X169852907Y-102966230D01*
X170236051Y-103222239D01*
X170688000Y-103312137D01*
X171139949Y-103222239D01*
X171523093Y-102966230D01*
X171779102Y-102583086D01*
X171869000Y-102131137D01*
X171869000Y-102084863D01*
X173317000Y-102084863D01*
X173317000Y-102131137D01*
X173406898Y-102583086D01*
X173662907Y-102966230D01*
X174046051Y-103222239D01*
X174498000Y-103312137D01*
X174949949Y-103222239D01*
X175333093Y-102966230D01*
X175589102Y-102583086D01*
X175679000Y-102131137D01*
X175679000Y-102084863D01*
X175589102Y-101632914D01*
X175333093Y-101249770D01*
X174949949Y-100993761D01*
X174498000Y-100903863D01*
X174046051Y-100993761D01*
X173662907Y-101249770D01*
X173406898Y-101632914D01*
X173317000Y-102084863D01*
X171869000Y-102084863D01*
X171779102Y-101632914D01*
X171523093Y-101249770D01*
X171139949Y-100993761D01*
X170688000Y-100903863D01*
X170236051Y-100993761D01*
X169852907Y-101249770D01*
X169596898Y-101632914D01*
X169507000Y-102084863D01*
X168059000Y-102084863D01*
X167969102Y-101632914D01*
X167713093Y-101249770D01*
X167329949Y-100993761D01*
X166878000Y-100903863D01*
X166426051Y-100993761D01*
X166042907Y-101249770D01*
X165786898Y-101632914D01*
X165697000Y-102084863D01*
X164249000Y-102084863D01*
X164159102Y-101632914D01*
X163903093Y-101249770D01*
X163519949Y-100993761D01*
X163068000Y-100903863D01*
X162616051Y-100993761D01*
X162232907Y-101249770D01*
X161976898Y-101632914D01*
X161887000Y-102084863D01*
X160439020Y-102084863D01*
X160439204Y-101874115D01*
X160259787Y-101439891D01*
X159927856Y-101107381D01*
X159493946Y-100927206D01*
X159024115Y-100926796D01*
X158589891Y-101106213D01*
X158257381Y-101438144D01*
X158077206Y-101872054D01*
X158076796Y-102341885D01*
X158256213Y-102776109D01*
X158496000Y-103016314D01*
X158496000Y-105156000D01*
X158503957Y-105196000D01*
X155298007Y-105196000D01*
X154932935Y-104830291D01*
X154638306Y-104707950D01*
X154930966Y-104587025D01*
X155305709Y-104212935D01*
X155508769Y-103723914D01*
X155509231Y-103194409D01*
X155307025Y-102705034D01*
X154932935Y-102330291D01*
X154443914Y-102127231D01*
X153924408Y-102126778D01*
X152416815Y-100619185D01*
X152169605Y-100454004D01*
X151878000Y-100396000D01*
X140387892Y-100396000D01*
X140321501Y-100235320D01*
X139863093Y-99776112D01*
X139263849Y-99527284D01*
X138614997Y-99526718D01*
X138015320Y-99774499D01*
X137556112Y-100232907D01*
X137307284Y-100832151D01*
X137306718Y-101481003D01*
X127393700Y-101481003D01*
X127393700Y-74030000D01*
X146285536Y-74030000D01*
X146285536Y-75830000D01*
X146312103Y-75971190D01*
X146395546Y-76100865D01*
X146522866Y-76187859D01*
X146674000Y-76218464D01*
X148474000Y-76218464D01*
X148615190Y-76191897D01*
X148744865Y-76108454D01*
X148831859Y-75981134D01*
X148862464Y-75830000D01*
X148862464Y-74030000D01*
X158985536Y-74030000D01*
X158985536Y-75830000D01*
X159012103Y-75971190D01*
X159095546Y-76100865D01*
X159222866Y-76187859D01*
X159374000Y-76218464D01*
X161174000Y-76218464D01*
X161315190Y-76191897D01*
X161444865Y-76108454D01*
X161531859Y-75981134D01*
X161562464Y-75830000D01*
X161562464Y-74030000D01*
X161535897Y-73888810D01*
X161452454Y-73759135D01*
X161325134Y-73672141D01*
X161174000Y-73641536D01*
X160599534Y-73641536D01*
X160998680Y-73476612D01*
X161359345Y-73116575D01*
X161554777Y-72645924D01*
X161555222Y-72136311D01*
X161360612Y-71665320D01*
X161000575Y-71304655D01*
X160529924Y-71109223D01*
X160020311Y-71108778D01*
X159549320Y-71303388D01*
X159188655Y-71663425D01*
X158993223Y-72134076D01*
X158992778Y-72643689D01*
X159187388Y-73114680D01*
X159547425Y-73475345D01*
X159947656Y-73641536D01*
X159374000Y-73641536D01*
X159232810Y-73668103D01*
X159103135Y-73751546D01*
X159016141Y-73878866D01*
X158985536Y-74030000D01*
X148862464Y-74030000D01*
X148835897Y-73888810D01*
X148752454Y-73759135D01*
X148625134Y-73672141D01*
X148474000Y-73641536D01*
X147899534Y-73641536D01*
X148298680Y-73476612D01*
X148659345Y-73116575D01*
X148854777Y-72645924D01*
X148855222Y-72136311D01*
X148660612Y-71665320D01*
X148300575Y-71304655D01*
X147829924Y-71109223D01*
X147320311Y-71108778D01*
X146849320Y-71303388D01*
X146488655Y-71663425D01*
X146293223Y-72134076D01*
X146292778Y-72643689D01*
X146487388Y-73114680D01*
X146847425Y-73475345D01*
X147247656Y-73641536D01*
X146674000Y-73641536D01*
X146532810Y-73668103D01*
X146403135Y-73751546D01*
X146316141Y-73878866D01*
X146285536Y-74030000D01*
X127393700Y-74030000D01*
X127393700Y-45770193D01*
X146552865Y-45770193D01*
X146552865Y-45923807D01*
X146697874Y-46652819D01*
X146732310Y-46735954D01*
X146756660Y-46794740D01*
X147169613Y-47412766D01*
X147278234Y-47521387D01*
X147896259Y-47934340D01*
X147979395Y-47968776D01*
X148038181Y-47993126D01*
X148767193Y-48138135D01*
X148805969Y-48138135D01*
X148844000Y-48145700D01*
X159004000Y-48145700D01*
X159042031Y-48138135D01*
X159080807Y-48138135D01*
X159809819Y-47993126D01*
X159892954Y-47958690D01*
X159951740Y-47934340D01*
X160569766Y-47521387D01*
X160678387Y-47412766D01*
X161091340Y-46794741D01*
X161125776Y-46711605D01*
X161150126Y-46652819D01*
X161295135Y-45923807D01*
X161295135Y-45770193D01*
X161150126Y-45041181D01*
X161125776Y-44982395D01*
X161091340Y-44899259D01*
X160678387Y-44281234D01*
X160569766Y-44172613D01*
X159951740Y-43759660D01*
X159863894Y-43723273D01*
X159809819Y-43700874D01*
X159080807Y-43555865D01*
X159042031Y-43555865D01*
X159004000Y-43548300D01*
X148844000Y-43548300D01*
X148805969Y-43555865D01*
X148767193Y-43555865D01*
X148038181Y-43700874D01*
X147984106Y-43723273D01*
X147896259Y-43759660D01*
X147278234Y-44172613D01*
X147169613Y-44281234D01*
X146756660Y-44899260D01*
X146756660Y-44899261D01*
X146697874Y-45041181D01*
X146552865Y-45770193D01*
X127393700Y-45770193D01*
X127393700Y-41795700D01*
X180454300Y-41795700D01*
X180454300Y-126606300D01*
X180454300Y-126606300D01*
G37*
X180454300Y-126606300D02*
X127393700Y-126606300D01*
X127393700Y-124678213D01*
X152107392Y-124678213D01*
X152176857Y-124920397D01*
X152700302Y-125107144D01*
X153255368Y-125079362D01*
X153639143Y-124920397D01*
X153708608Y-124678213D01*
X152908000Y-123877605D01*
X152107392Y-124678213D01*
X127393700Y-124678213D01*
X127393700Y-123490302D01*
X151498856Y-123490302D01*
X151526638Y-124045368D01*
X151685603Y-124429143D01*
X151927787Y-124498608D01*
X152728395Y-123698000D01*
X153087605Y-123698000D01*
X153888213Y-124498608D01*
X154130397Y-124429143D01*
X154307852Y-123931742D01*
X154478446Y-124344612D01*
X154799697Y-124666423D01*
X155219646Y-124840801D01*
X155674359Y-124841198D01*
X156094612Y-124667554D01*
X156416423Y-124346303D01*
X156590801Y-123926354D01*
X156590802Y-123924359D01*
X156844802Y-123924359D01*
X157018446Y-124344612D01*
X157339697Y-124666423D01*
X157759646Y-124840801D01*
X158214359Y-124841198D01*
X158634612Y-124667554D01*
X158956423Y-124346303D01*
X159130801Y-123926354D01*
X159131198Y-123471641D01*
X158957554Y-123051388D01*
X158636303Y-122729577D01*
X158216354Y-122555199D01*
X157761641Y-122554802D01*
X157341388Y-122728446D01*
X157019577Y-123049697D01*
X156845199Y-123469646D01*
X156844802Y-123924359D01*
X156590802Y-123924359D01*
X156591198Y-123471641D01*
X156417554Y-123051388D01*
X156096303Y-122729577D01*
X155676354Y-122555199D01*
X155221641Y-122554802D01*
X154801388Y-122728446D01*
X154479577Y-123049697D01*
X154305199Y-123469646D01*
X154305030Y-123663660D01*
X154289362Y-123350632D01*
X154130397Y-122966857D01*
X153888213Y-122897392D01*
X153087605Y-123698000D01*
X152728395Y-123698000D01*
X151927787Y-122897392D01*
X151685603Y-122966857D01*
X151498856Y-123490302D01*
X127393700Y-123490302D01*
X127393700Y-121443750D01*
X137218000Y-121443750D01*
X137218000Y-122369309D01*
X137314673Y-122602698D01*
X137493301Y-122781327D01*
X137726690Y-122878000D01*
X138652250Y-122878000D01*
X138811000Y-122719250D01*
X138811000Y-121285000D01*
X139065000Y-121285000D01*
X139065000Y-122719250D01*
X139223750Y-122878000D01*
X140149310Y-122878000D01*
X140382699Y-122781327D01*
X140446238Y-122717787D01*
X152107392Y-122717787D01*
X152908000Y-123518395D01*
X153708608Y-122717787D01*
X153639143Y-122475603D01*
X153115698Y-122288856D01*
X152560632Y-122316638D01*
X152176857Y-122475603D01*
X152107392Y-122717787D01*
X140446238Y-122717787D01*
X140561327Y-122602698D01*
X140658000Y-122369309D01*
X140658000Y-121443750D01*
X140499250Y-121285000D01*
X139065000Y-121285000D01*
X138811000Y-121285000D01*
X137376750Y-121285000D01*
X137218000Y-121443750D01*
X127393700Y-121443750D01*
X127393700Y-119946691D01*
X137218000Y-119946691D01*
X137218000Y-120872250D01*
X137376750Y-121031000D01*
X138811000Y-121031000D01*
X138811000Y-119596750D01*
X139065000Y-119596750D01*
X139065000Y-121031000D01*
X140499250Y-121031000D01*
X140658000Y-120872250D01*
X140658000Y-119946691D01*
X140561327Y-119713302D01*
X140382699Y-119534673D01*
X140149310Y-119438000D01*
X139223750Y-119438000D01*
X139065000Y-119596750D01*
X138811000Y-119596750D01*
X138652250Y-119438000D01*
X137726690Y-119438000D01*
X137493301Y-119534673D01*
X137314673Y-119713302D01*
X137218000Y-119946691D01*
X127393700Y-119946691D01*
X127393700Y-101481003D01*
X137306718Y-101481003D01*
X137554499Y-102080680D01*
X138012907Y-102539888D01*
X138612151Y-102788716D01*
X139261003Y-102789282D01*
X139860680Y-102541501D01*
X140319888Y-102083093D01*
X140387610Y-101920000D01*
X151562370Y-101920000D01*
X152847220Y-103204851D01*
X152846769Y-103721591D01*
X153048975Y-104210966D01*
X153423065Y-104585709D01*
X153717694Y-104708050D01*
X153425034Y-104828975D01*
X153050291Y-105203065D01*
X152947754Y-105450000D01*
X152360000Y-105450000D01*
X152165597Y-105488669D01*
X152000790Y-105598790D01*
X150770790Y-106828790D01*
X150660669Y-106993597D01*
X150622000Y-107188000D01*
X150622000Y-114300000D01*
X150660669Y-114494403D01*
X150770790Y-114659210D01*
X151822714Y-115711134D01*
X151765199Y-115849646D01*
X151764802Y-116304359D01*
X151938446Y-116724612D01*
X152259697Y-117046423D01*
X152679646Y-117220801D01*
X153134359Y-117221198D01*
X153274764Y-117163184D01*
X159442714Y-123331134D01*
X159385199Y-123469646D01*
X159384802Y-123924359D01*
X159558446Y-124344612D01*
X159879697Y-124666423D01*
X160299646Y-124840801D01*
X160754359Y-124841198D01*
X161174612Y-124667554D01*
X161496423Y-124346303D01*
X161571397Y-124165745D01*
X164779861Y-124165745D01*
X164853995Y-124411864D01*
X165391223Y-124604965D01*
X165961454Y-124577778D01*
X166362005Y-124411864D01*
X166436139Y-124165745D01*
X165608000Y-123337605D01*
X164779861Y-124165745D01*
X161571397Y-124165745D01*
X161670801Y-123926354D01*
X161671198Y-123471641D01*
X161497554Y-123051388D01*
X161176303Y-122729577D01*
X160756354Y-122555199D01*
X160301641Y-122554802D01*
X160161236Y-122612816D01*
X153993286Y-116444866D01*
X154050801Y-116306354D01*
X154050802Y-116304359D01*
X154304802Y-116304359D01*
X154478446Y-116724612D01*
X154799697Y-117046423D01*
X155219646Y-117220801D01*
X155674359Y-117221198D01*
X156094612Y-117047554D01*
X156416423Y-116726303D01*
X156590801Y-116306354D01*
X156590802Y-116304359D01*
X156844802Y-116304359D01*
X157018446Y-116724612D01*
X157339697Y-117046423D01*
X157480000Y-117104682D01*
X157480000Y-118872000D01*
X157518669Y-119066403D01*
X157628790Y-119231210D01*
X159914790Y-121517210D01*
X160079596Y-121627331D01*
X160274000Y-121666000D01*
X164419536Y-121666000D01*
X164419536Y-121958000D01*
X164446103Y-122099190D01*
X164506819Y-122193545D01*
X164485378Y-122214986D01*
X164600253Y-122329861D01*
X164354136Y-122403995D01*
X164161035Y-122941223D01*
X164188222Y-123511454D01*
X164354136Y-123912005D01*
X164600255Y-123986139D01*
X165428395Y-123158000D01*
X165414252Y-123143858D01*
X165593858Y-122964252D01*
X165608000Y-122978395D01*
X165622142Y-122964252D01*
X165801748Y-123143858D01*
X165787605Y-123158000D01*
X166615745Y-123986139D01*
X166861864Y-123912005D01*
X166956130Y-123649745D01*
X173669861Y-123649745D01*
X173743995Y-123895864D01*
X174281223Y-124088965D01*
X174851454Y-124061778D01*
X175252005Y-123895864D01*
X175326139Y-123649745D01*
X174498000Y-122821605D01*
X173669861Y-123649745D01*
X166956130Y-123649745D01*
X167054965Y-123374777D01*
X167027778Y-122804546D01*
X166870657Y-122425223D01*
X173051035Y-122425223D01*
X173078222Y-122995454D01*
X173244136Y-123396005D01*
X173490255Y-123470139D01*
X174318395Y-122642000D01*
X174677605Y-122642000D01*
X175505745Y-123470139D01*
X175751864Y-123396005D01*
X175944965Y-122858777D01*
X175917778Y-122288546D01*
X175751864Y-121887995D01*
X175505745Y-121813861D01*
X174677605Y-122642000D01*
X174318395Y-122642000D01*
X173490255Y-121813861D01*
X173244136Y-121887995D01*
X173051035Y-122425223D01*
X166870657Y-122425223D01*
X166861864Y-122403995D01*
X166615747Y-122329861D01*
X166730622Y-122214986D01*
X166708588Y-122192952D01*
X166765859Y-122109134D01*
X166796464Y-121958000D01*
X166796464Y-120358000D01*
X166769897Y-120216810D01*
X166686454Y-120087135D01*
X166559134Y-120000141D01*
X166408000Y-119969536D01*
X164808000Y-119969536D01*
X164666810Y-119996103D01*
X164537135Y-120079546D01*
X164450141Y-120206866D01*
X164419536Y-120358000D01*
X164419536Y-120650000D01*
X160484420Y-120650000D01*
X159176420Y-119342000D01*
X173309536Y-119342000D01*
X173309536Y-120942000D01*
X173336103Y-121083190D01*
X173419546Y-121212865D01*
X173546866Y-121299859D01*
X173698000Y-121330464D01*
X173883227Y-121330464D01*
X173743995Y-121388136D01*
X173669861Y-121634255D01*
X174498000Y-122462395D01*
X175326139Y-121634255D01*
X175252005Y-121388136D01*
X175091555Y-121330464D01*
X175298000Y-121330464D01*
X175439190Y-121303897D01*
X175568865Y-121220454D01*
X175655859Y-121093134D01*
X175686464Y-120942000D01*
X175686464Y-119342000D01*
X175659897Y-119200810D01*
X175576454Y-119071135D01*
X175449134Y-118984141D01*
X175298000Y-118953536D01*
X175134884Y-118953536D01*
X178667210Y-115421210D01*
X178777331Y-115256403D01*
X178816000Y-115062000D01*
X178816000Y-114607110D01*
X179166230Y-114373093D01*
X179422239Y-113989949D01*
X179512137Y-113538000D01*
X179422239Y-113086051D01*
X179166230Y-112702907D01*
X178783086Y-112446898D01*
X178331137Y-112357000D01*
X178284863Y-112357000D01*
X177918328Y-112429908D01*
X175612359Y-110123939D01*
X175631832Y-110077041D01*
X176916086Y-110077041D01*
X177155611Y-110583134D01*
X177570577Y-110959041D01*
X177958961Y-111119904D01*
X178181000Y-110997915D01*
X178181000Y-109855000D01*
X178435000Y-109855000D01*
X178435000Y-110997915D01*
X178657039Y-111119904D01*
X179045423Y-110959041D01*
X179460389Y-110583134D01*
X179699914Y-110077041D01*
X179578629Y-109855000D01*
X178435000Y-109855000D01*
X178181000Y-109855000D01*
X177037371Y-109855000D01*
X176916086Y-110077041D01*
X175631832Y-110077041D01*
X175678794Y-109963946D01*
X175679204Y-109494115D01*
X175631623Y-109378959D01*
X176916086Y-109378959D01*
X177037371Y-109601000D01*
X178181000Y-109601000D01*
X178181000Y-108458085D01*
X178435000Y-108458085D01*
X178435000Y-109601000D01*
X179578629Y-109601000D01*
X179699914Y-109378959D01*
X179460389Y-108872866D01*
X179045423Y-108496959D01*
X178657039Y-108336096D01*
X178435000Y-108458085D01*
X178181000Y-108458085D01*
X177958961Y-108336096D01*
X177570577Y-108496959D01*
X177155611Y-108872866D01*
X176916086Y-109378959D01*
X175631623Y-109378959D01*
X175499787Y-109059891D01*
X175167856Y-108727381D01*
X175011828Y-108662592D01*
X178667210Y-105007210D01*
X178777331Y-104842403D01*
X178816000Y-104648000D01*
X178816000Y-103175942D01*
X178976109Y-103109787D01*
X179308619Y-102777856D01*
X179488794Y-102343946D01*
X179489204Y-101874115D01*
X179309787Y-101439891D01*
X178977856Y-101107381D01*
X178543946Y-100927206D01*
X178074115Y-100926796D01*
X177639891Y-101106213D01*
X177307381Y-101438144D01*
X177127206Y-101872054D01*
X177126796Y-102341885D01*
X177306213Y-102776109D01*
X177638144Y-103108619D01*
X177800000Y-103175827D01*
X177800000Y-104437580D01*
X174138790Y-108098790D01*
X174028669Y-108263597D01*
X173990000Y-108458000D01*
X173990000Y-108660058D01*
X173829891Y-108726213D01*
X173497381Y-109058144D01*
X173317206Y-109492054D01*
X173316796Y-109961885D01*
X173496213Y-110396109D01*
X173828144Y-110728619D01*
X174262054Y-110908794D01*
X174731885Y-110909204D01*
X174893858Y-110842278D01*
X177184448Y-113132868D01*
X177103863Y-113538000D01*
X177193761Y-113989949D01*
X177449770Y-114373093D01*
X177800000Y-114607110D01*
X177800000Y-114851580D01*
X174138790Y-118512790D01*
X174028669Y-118677597D01*
X173990000Y-118872000D01*
X173990000Y-118953536D01*
X173698000Y-118953536D01*
X173556810Y-118980103D01*
X173427135Y-119063546D01*
X173340141Y-119190866D01*
X173309536Y-119342000D01*
X159176420Y-119342000D01*
X158496000Y-118661580D01*
X158496000Y-117104827D01*
X158634612Y-117047554D01*
X158956423Y-116726303D01*
X159130801Y-116306354D01*
X159130802Y-116304359D01*
X159384802Y-116304359D01*
X159558446Y-116724612D01*
X159879697Y-117046423D01*
X160299646Y-117220801D01*
X160754359Y-117221198D01*
X161174612Y-117047554D01*
X161496423Y-116726303D01*
X161646968Y-116363750D01*
X164223000Y-116363750D01*
X164223000Y-116704309D01*
X164319673Y-116937698D01*
X164498301Y-117116327D01*
X164731690Y-117213000D01*
X165322250Y-117213000D01*
X165481000Y-117054250D01*
X165481000Y-116205000D01*
X165735000Y-116205000D01*
X165735000Y-117054250D01*
X165893750Y-117213000D01*
X166484310Y-117213000D01*
X166717699Y-117116327D01*
X166896327Y-116937698D01*
X166993000Y-116704309D01*
X166993000Y-116363750D01*
X166834250Y-116205000D01*
X165735000Y-116205000D01*
X165481000Y-116205000D01*
X164381750Y-116205000D01*
X164223000Y-116363750D01*
X161646968Y-116363750D01*
X161670801Y-116306354D01*
X161671198Y-115851641D01*
X161497554Y-115431388D01*
X161176303Y-115109577D01*
X160756354Y-114935199D01*
X160301641Y-114934802D01*
X159881388Y-115108446D01*
X159559577Y-115429697D01*
X159385199Y-115849646D01*
X159384802Y-116304359D01*
X159130802Y-116304359D01*
X159131198Y-115851641D01*
X158957554Y-115431388D01*
X158636303Y-115109577D01*
X158216354Y-114935199D01*
X157761641Y-114934802D01*
X157341388Y-115108446D01*
X157019577Y-115429697D01*
X156845199Y-115849646D01*
X156844802Y-116304359D01*
X156590802Y-116304359D01*
X156591198Y-115851641D01*
X156417554Y-115431388D01*
X156096303Y-115109577D01*
X155956000Y-115051318D01*
X155956000Y-113748420D01*
X158852868Y-110851552D01*
X159258000Y-110932137D01*
X159709949Y-110842239D01*
X160093093Y-110586230D01*
X160327110Y-110236000D01*
X162000058Y-110236000D01*
X162066213Y-110396109D01*
X162398144Y-110728619D01*
X162832054Y-110908794D01*
X163301885Y-110909204D01*
X163736109Y-110729787D01*
X164068619Y-110397856D01*
X164248794Y-109963946D01*
X164249204Y-109494115D01*
X164069787Y-109059891D01*
X163737856Y-108727381D01*
X163303946Y-108547206D01*
X162834115Y-108546796D01*
X162399891Y-108726213D01*
X162067381Y-109058144D01*
X162000173Y-109220000D01*
X160327110Y-109220000D01*
X160093093Y-108869770D01*
X159709949Y-108613761D01*
X159258000Y-108523863D01*
X158806051Y-108613761D01*
X158422907Y-108869770D01*
X158166898Y-109252914D01*
X158077000Y-109704863D01*
X158077000Y-109751137D01*
X158149908Y-110117672D01*
X155088790Y-113178790D01*
X154978669Y-113343597D01*
X154940000Y-113538000D01*
X154940000Y-115051173D01*
X154801388Y-115108446D01*
X154479577Y-115429697D01*
X154305199Y-115849646D01*
X154304802Y-116304359D01*
X154050802Y-116304359D01*
X154051198Y-115851641D01*
X153877554Y-115431388D01*
X153556303Y-115109577D01*
X153136354Y-114935199D01*
X152681641Y-114934802D01*
X152541236Y-114992816D01*
X151638000Y-114089580D01*
X151638000Y-107398420D01*
X152570420Y-106466000D01*
X152947757Y-106466000D01*
X153048975Y-106710966D01*
X153423065Y-107085709D01*
X153504529Y-107119536D01*
X153228000Y-107119536D01*
X153086810Y-107146103D01*
X152957135Y-107229546D01*
X152870141Y-107356866D01*
X152839536Y-107508000D01*
X152839536Y-109408000D01*
X152866103Y-109549190D01*
X152949546Y-109678865D01*
X153076866Y-109765859D01*
X153228000Y-109796464D01*
X155128000Y-109796464D01*
X155269190Y-109769897D01*
X155398865Y-109686454D01*
X155485859Y-109559134D01*
X155516464Y-109408000D01*
X155516464Y-107508000D01*
X155489897Y-107366810D01*
X155406454Y-107237135D01*
X155279134Y-107150141D01*
X155128000Y-107119536D01*
X154852284Y-107119536D01*
X154930966Y-107087025D01*
X155298632Y-106720000D01*
X166116000Y-106720000D01*
X166116000Y-108819941D01*
X165877381Y-109058144D01*
X165697206Y-109492054D01*
X165696796Y-109961885D01*
X165876213Y-110396109D01*
X166208144Y-110728619D01*
X166642054Y-110908794D01*
X167111885Y-110909204D01*
X167546109Y-110729787D01*
X167878619Y-110397856D01*
X168058794Y-109963946D01*
X168059204Y-109494115D01*
X167879787Y-109059891D01*
X167640000Y-108819686D01*
X167640000Y-106720000D01*
X168126370Y-106720000D01*
X169926000Y-108519631D01*
X169926000Y-108819941D01*
X169687381Y-109058144D01*
X169507206Y-109492054D01*
X169506796Y-109961885D01*
X169540200Y-110042730D01*
X169342202Y-109844385D01*
X169062236Y-109728133D01*
X168759094Y-109727868D01*
X168478926Y-109843632D01*
X168264385Y-110057798D01*
X168148133Y-110337764D01*
X168147868Y-110640906D01*
X168263632Y-110921074D01*
X168402000Y-111059684D01*
X168402000Y-112057580D01*
X167429580Y-113030000D01*
X166579934Y-113030000D01*
X166503119Y-112915039D01*
X166217302Y-112724062D01*
X165880158Y-112657000D01*
X165335842Y-112657000D01*
X164998698Y-112724062D01*
X164712881Y-112915039D01*
X164521904Y-113200856D01*
X164454842Y-113538000D01*
X164521904Y-113875144D01*
X164712881Y-114160961D01*
X164730899Y-114173000D01*
X164712881Y-114185039D01*
X164521904Y-114470856D01*
X164454842Y-114808000D01*
X164500725Y-115038669D01*
X164498301Y-115039673D01*
X164319673Y-115218302D01*
X164223000Y-115451691D01*
X164223000Y-115792250D01*
X164381750Y-115951000D01*
X165481000Y-115951000D01*
X165481000Y-115931000D01*
X165735000Y-115931000D01*
X165735000Y-115951000D01*
X166834250Y-115951000D01*
X166993000Y-115792250D01*
X166993000Y-115451691D01*
X166936795Y-115316000D01*
X169418000Y-115316000D01*
X169612403Y-115277331D01*
X169777210Y-115167210D01*
X170292061Y-114652359D01*
X170452054Y-114718794D01*
X170921885Y-114719204D01*
X171356109Y-114539787D01*
X171688619Y-114207856D01*
X171868794Y-113773946D01*
X171869204Y-113304115D01*
X171689787Y-112869891D01*
X171357856Y-112537381D01*
X170923946Y-112357206D01*
X170454115Y-112356796D01*
X170019891Y-112536213D01*
X169687381Y-112868144D01*
X169507206Y-113302054D01*
X169506796Y-113771885D01*
X169573722Y-113933858D01*
X169207580Y-114300000D01*
X166579934Y-114300000D01*
X166503119Y-114185039D01*
X166485101Y-114173000D01*
X166503119Y-114160961D01*
X166579934Y-114046000D01*
X167640000Y-114046000D01*
X167834403Y-114007331D01*
X167999210Y-113897210D01*
X169269210Y-112627210D01*
X169379331Y-112462404D01*
X169385746Y-112430150D01*
X169418000Y-112268000D01*
X169418000Y-111059576D01*
X169555615Y-110922202D01*
X169671867Y-110642236D01*
X169672112Y-110361982D01*
X169686213Y-110396109D01*
X170018144Y-110728619D01*
X170452054Y-110908794D01*
X170921885Y-110909204D01*
X171356109Y-110729787D01*
X171688619Y-110397856D01*
X171868794Y-109963946D01*
X171869204Y-109494115D01*
X171689787Y-109059891D01*
X171450000Y-108819686D01*
X171450000Y-108204000D01*
X171391996Y-107912395D01*
X171325834Y-107813377D01*
X171226816Y-107665185D01*
X168980815Y-105419185D01*
X168980814Y-105419184D01*
X168733605Y-105254004D01*
X168442000Y-105196000D01*
X160375631Y-105196000D01*
X160020000Y-104840370D01*
X160020000Y-103016059D01*
X160258619Y-102777856D01*
X160438794Y-102343946D01*
X160439020Y-102084863D01*
X161887000Y-102084863D01*
X161887000Y-102131137D01*
X161976898Y-102583086D01*
X162232907Y-102966230D01*
X162616051Y-103222239D01*
X163068000Y-103312137D01*
X163519949Y-103222239D01*
X163903093Y-102966230D01*
X164159102Y-102583086D01*
X164249000Y-102131137D01*
X164249000Y-102084863D01*
X165697000Y-102084863D01*
X165697000Y-102131137D01*
X165786898Y-102583086D01*
X166042907Y-102966230D01*
X166426051Y-103222239D01*
X166878000Y-103312137D01*
X167329949Y-103222239D01*
X167713093Y-102966230D01*
X167969102Y-102583086D01*
X168059000Y-102131137D01*
X168059000Y-102084863D01*
X169507000Y-102084863D01*
X169507000Y-102131137D01*
X169596898Y-102583086D01*
X169852907Y-102966230D01*
X170236051Y-103222239D01*
X170688000Y-103312137D01*
X171139949Y-103222239D01*
X171523093Y-102966230D01*
X171779102Y-102583086D01*
X171869000Y-102131137D01*
X171869000Y-102084863D01*
X173317000Y-102084863D01*
X173317000Y-102131137D01*
X173406898Y-102583086D01*
X173662907Y-102966230D01*
X174046051Y-103222239D01*
X174498000Y-103312137D01*
X174949949Y-103222239D01*
X175333093Y-102966230D01*
X175589102Y-102583086D01*
X175679000Y-102131137D01*
X175679000Y-102084863D01*
X175589102Y-101632914D01*
X175333093Y-101249770D01*
X174949949Y-100993761D01*
X174498000Y-100903863D01*
X174046051Y-100993761D01*
X173662907Y-101249770D01*
X173406898Y-101632914D01*
X173317000Y-102084863D01*
X171869000Y-102084863D01*
X171779102Y-101632914D01*
X171523093Y-101249770D01*
X171139949Y-100993761D01*
X170688000Y-100903863D01*
X170236051Y-100993761D01*
X169852907Y-101249770D01*
X169596898Y-101632914D01*
X169507000Y-102084863D01*
X168059000Y-102084863D01*
X167969102Y-101632914D01*
X167713093Y-101249770D01*
X167329949Y-100993761D01*
X166878000Y-100903863D01*
X166426051Y-100993761D01*
X166042907Y-101249770D01*
X165786898Y-101632914D01*
X165697000Y-102084863D01*
X164249000Y-102084863D01*
X164159102Y-101632914D01*
X163903093Y-101249770D01*
X163519949Y-100993761D01*
X163068000Y-100903863D01*
X162616051Y-100993761D01*
X162232907Y-101249770D01*
X161976898Y-101632914D01*
X161887000Y-102084863D01*
X160439020Y-102084863D01*
X160439204Y-101874115D01*
X160259787Y-101439891D01*
X159927856Y-101107381D01*
X159493946Y-100927206D01*
X159024115Y-100926796D01*
X158589891Y-101106213D01*
X158257381Y-101438144D01*
X158077206Y-101872054D01*
X158076796Y-102341885D01*
X158256213Y-102776109D01*
X158496000Y-103016314D01*
X158496000Y-105156000D01*
X158503957Y-105196000D01*
X155298007Y-105196000D01*
X154932935Y-104830291D01*
X154638306Y-104707950D01*
X154930966Y-104587025D01*
X155305709Y-104212935D01*
X155508769Y-103723914D01*
X155509231Y-103194409D01*
X155307025Y-102705034D01*
X154932935Y-102330291D01*
X154443914Y-102127231D01*
X153924408Y-102126778D01*
X152416815Y-100619185D01*
X152169605Y-100454004D01*
X151878000Y-100396000D01*
X140387892Y-100396000D01*
X140321501Y-100235320D01*
X139863093Y-99776112D01*
X139263849Y-99527284D01*
X138614997Y-99526718D01*
X138015320Y-99774499D01*
X137556112Y-100232907D01*
X137307284Y-100832151D01*
X137306718Y-101481003D01*
X127393700Y-101481003D01*
X127393700Y-74030000D01*
X146285536Y-74030000D01*
X146285536Y-75830000D01*
X146312103Y-75971190D01*
X146395546Y-76100865D01*
X146522866Y-76187859D01*
X146674000Y-76218464D01*
X148474000Y-76218464D01*
X148615190Y-76191897D01*
X148744865Y-76108454D01*
X148831859Y-75981134D01*
X148862464Y-75830000D01*
X148862464Y-74030000D01*
X158985536Y-74030000D01*
X158985536Y-75830000D01*
X159012103Y-75971190D01*
X159095546Y-76100865D01*
X159222866Y-76187859D01*
X159374000Y-76218464D01*
X161174000Y-76218464D01*
X161315190Y-76191897D01*
X161444865Y-76108454D01*
X161531859Y-75981134D01*
X161562464Y-75830000D01*
X161562464Y-74030000D01*
X161535897Y-73888810D01*
X161452454Y-73759135D01*
X161325134Y-73672141D01*
X161174000Y-73641536D01*
X160599534Y-73641536D01*
X160998680Y-73476612D01*
X161359345Y-73116575D01*
X161554777Y-72645924D01*
X161555222Y-72136311D01*
X161360612Y-71665320D01*
X161000575Y-71304655D01*
X160529924Y-71109223D01*
X160020311Y-71108778D01*
X159549320Y-71303388D01*
X159188655Y-71663425D01*
X158993223Y-72134076D01*
X158992778Y-72643689D01*
X159187388Y-73114680D01*
X159547425Y-73475345D01*
X159947656Y-73641536D01*
X159374000Y-73641536D01*
X159232810Y-73668103D01*
X159103135Y-73751546D01*
X159016141Y-73878866D01*
X158985536Y-74030000D01*
X148862464Y-74030000D01*
X148835897Y-73888810D01*
X148752454Y-73759135D01*
X148625134Y-73672141D01*
X148474000Y-73641536D01*
X147899534Y-73641536D01*
X148298680Y-73476612D01*
X148659345Y-73116575D01*
X148854777Y-72645924D01*
X148855222Y-72136311D01*
X148660612Y-71665320D01*
X148300575Y-71304655D01*
X147829924Y-71109223D01*
X147320311Y-71108778D01*
X146849320Y-71303388D01*
X146488655Y-71663425D01*
X146293223Y-72134076D01*
X146292778Y-72643689D01*
X146487388Y-73114680D01*
X146847425Y-73475345D01*
X147247656Y-73641536D01*
X146674000Y-73641536D01*
X146532810Y-73668103D01*
X146403135Y-73751546D01*
X146316141Y-73878866D01*
X146285536Y-74030000D01*
X127393700Y-74030000D01*
X127393700Y-45770193D01*
X146552865Y-45770193D01*
X146552865Y-45923807D01*
X146697874Y-46652819D01*
X146732310Y-46735954D01*
X146756660Y-46794740D01*
X147169613Y-47412766D01*
X147278234Y-47521387D01*
X147896259Y-47934340D01*
X147979395Y-47968776D01*
X148038181Y-47993126D01*
X148767193Y-48138135D01*
X148805969Y-48138135D01*
X148844000Y-48145700D01*
X159004000Y-48145700D01*
X159042031Y-48138135D01*
X159080807Y-48138135D01*
X159809819Y-47993126D01*
X159892954Y-47958690D01*
X159951740Y-47934340D01*
X160569766Y-47521387D01*
X160678387Y-47412766D01*
X161091340Y-46794741D01*
X161125776Y-46711605D01*
X161150126Y-46652819D01*
X161295135Y-45923807D01*
X161295135Y-45770193D01*
X161150126Y-45041181D01*
X161125776Y-44982395D01*
X161091340Y-44899259D01*
X160678387Y-44281234D01*
X160569766Y-44172613D01*
X159951740Y-43759660D01*
X159863894Y-43723273D01*
X159809819Y-43700874D01*
X159080807Y-43555865D01*
X159042031Y-43555865D01*
X159004000Y-43548300D01*
X148844000Y-43548300D01*
X148805969Y-43555865D01*
X148767193Y-43555865D01*
X148038181Y-43700874D01*
X147984106Y-43723273D01*
X147896259Y-43759660D01*
X147278234Y-44172613D01*
X147169613Y-44281234D01*
X146756660Y-44899260D01*
X146756660Y-44899261D01*
X146697874Y-45041181D01*
X146552865Y-45770193D01*
X127393700Y-45770193D01*
X127393700Y-41795700D01*
X180454300Y-41795700D01*
X180454300Y-126606300D01*
M02*
