M48
;DRILL file {KiCad 4.0.7} date 07/03/23 18:35:23
;FORMAT={-:-/ absolute / inch / decimal}
FMAT,2
INCH,TZ
T1C0.015
T2C0.022
T3C0.030
T4C0.031
T5C0.035
T6C0.046
T7C0.059
%
G90
G05
M72
T1
X6.65Y-4.35
T2
X6.52Y-4.47
X6.52Y-4.52
X6.52Y-4.57
T3
X6.02Y-4.57
X6.02Y-4.87
X6.12Y-4.57
X6.12Y-4.87
X6.22Y-4.57
X6.22Y-4.87
X6.32Y-4.57
X6.32Y-4.87
T4
X6.27Y-4.02
X6.27Y-4.32
X6.42Y-4.02
X6.42Y-4.32
X6.52Y-4.77
X6.52Y-4.8487
X6.57Y-4.02
X6.57Y-4.32
X6.72Y-4.02
X6.72Y-4.32
X6.72Y-4.47
X6.87Y-4.02
X6.87Y-4.32
X6.87Y-4.73
X6.87Y-4.8284
X7.02Y-4.02
X7.02Y-4.32
X7.02Y-4.47
T5
X5.81Y-2.85
X5.81Y-2.95
X6.07Y-4.0731
X6.07Y-4.1716
X6.07Y-4.27
X6.31Y-2.85
X6.31Y-2.95
T6
X5.47Y-4.77
T7
X5.47Y-3.9826
T0
M30
